<?xml version="1.0" encoding="UTF-8" standalone="no"?>
<!-- Created with Inkscape (http://www.inkscape.org/) -->

<svg
   width="193.41249mm"
   height="159.0218mm"
   viewBox="0 0 193.4125 159.0218"
   version="1.1"
   id="svg284"
   inkscape:version="1.1.2 (b8e25be833, 2022-02-05)"
   sodipodi:docname="drawing.svg"
   xmlns:inkscape="http://www.inkscape.org/namespaces/inkscape"
   xmlns:sodipodi="http://sodipodi.sourceforge.net/DTD/sodipodi-0.dtd"
   xmlns="http://www.w3.org/2000/svg"
   xmlns:svg="http://www.w3.org/2000/svg">
  <sodipodi:namedview
     id="namedview286"
     pagecolor="#ffffff"
     bordercolor="#666666"
     borderopacity="1.0"
     inkscape:pageshadow="2"
     inkscape:pageopacity="0.0"
     inkscape:pagecheckerboard="0"
     inkscape:document-units="mm"
     showgrid="false"
     inkscape:zoom="0.64052329"
     inkscape:cx="200.61722"
     inkscape:cy="448.07114"
     inkscape:window-width="1920"
     inkscape:window-height="1137"
     inkscape:window-x="-8"
     inkscape:window-y="-8"
     inkscape:window-maximized="1"
     inkscape:current-layer="layer1"
     fit-margin-top="0"
     fit-margin-left="0"
     fit-margin-right="0"
     fit-margin-bottom="0" />
  <defs
     id="defs281">
    <rect
       x="34.346916"
       y="312.24469"
       width="462.12216"
       height="57.76527"
       id="rect2872" />
  </defs>
  <g
     inkscape:label="Layer 1"
     inkscape:groupmode="layer"
     id="layer1"
     transform="translate(29.422229,3.239478)">
    <path
       id="path310"
       style="fill:#ffd42a;stroke-width:0.264583"
       inkscape:transform-center-x="-2.7259619"
       inkscape:transform-center-y="0.64722053"
       d="M 12.92384,5.3408725 14.888948,28.536822 35.111264,40.068149 13.657858,49.105019 8.9399536,71.90096 -6.2840868,54.290106 l -23.1381422,2.557338 12.04443,-19.920976 -9.582253,-21.215419 22.6679081,5.299014 z" />
    <path
       id="path312"
       style="fill:#ffd42a;stroke-width:0.247615"
       inkscape:transform-center-x="-0.82188574"
       inkscape:transform-center-y="-0.57582149"
       d="m 75.930624,34.698189 -8.200356,-7.801638 -9.017979,2.87517 -7.43382,-8.831387 5.341969,-8.505892 -9.170829,-15.67392 24.270183,8.2330647 2.514228,9.5138953 22.425227,-2.11527 -21.379302,10.783911 z"
       sodipodi:nodetypes="ccccccccccc" />
    <path
       id="path337"
       style="fill:none;fill-rule:evenodd;stroke:#000024;stroke-width:5.56396;stroke-miterlimit:4;stroke-dasharray:none;stroke-opacity:1"
       d="m 101.41489,96.864471 c 1.3435,0.83007 1.23551,0.217421 0,0 -3.348202,-0.589206 -3.232758,-2.647992 -1.435506,-3.775853 3.214886,-2.017488 9.756726,-1.828576 13.557496,-0.290453 5.57778,2.257261 4.83281,6.261373 -0.15946,8.568285 -6.65397,3.07476 -17.77114,2.57823 -24.084481,-0.43568 -7.944736,-3.792702 -6.501354,-9.923813 1.754504,-13.360714 9.998937,-4.162544 25.831537,-3.343248 34.611467,1.161812 10.34688,5.309057 8.18891,13.597462 -3.34951,18.153142 -13.32154,5.25971 -33.906872,4.1136 -45.138474,-1.88794 -12.762063,-6.819317 -9.884149,-17.275581 4.944514,-22.945568 16.635545,-6.360877 41.98902,-4.886378 55.66551,2.61406 15.18346,8.32691 28.51927,28.804348 10.39648,35.586408"
       sodipodi:nodetypes="csssssssssssc" />
    <path
       id="rect361"
       style="fill:#000080;stroke-width:0.264583"
       d="m 118.13908,8.2614746 h 45.85118 V 45.43811 h -45.85118 z" />
    <g
       aria-label="Sample text. Это текст."
       transform="matrix(0.26458333,0,0,0.26458333,19.733543,-32.248835)"
       id="text2870"
       style="font-size:40px;line-height:1.25;white-space:pre;shape-inside:url(#rect2872)">
      <path
         d="m 35.578125,347.27251 q 0.585937,-2.69531 1.015625,-6.05469 h 1.289062 l -0.05859,2.14844 0.01953,1.25 q 0.898437,1.07422 2.578125,1.79687 1.699219,0.72266 3.574219,0.72266 2.832031,0 4.355468,-1.48437 1.523438,-1.50391 1.523438,-4.0625 0,-1.73829 -0.878906,-2.59766 -0.898438,-0.83984 -3.964844,-1.52344 -4.550781,-1.01562 -5.839844,-2.59765 -1.289062,-1.5625 -1.289062,-4.17969 0,-3.88672 3.105468,-6.73828 3.105469,-2.85157 7.675782,-2.85157 1.738281,0 3.261718,0.41016 1.542969,0.41016 2.851563,1.23047 -0.742188,3.30078 -0.976563,5.87891 h -1.347656 l 0.05859,-2.07032 -0.01953,-1.13281 q -0.722657,-0.97656 -2.109375,-1.58203 -1.367188,-0.625 -3.144532,-0.625 -2.617187,0 -4.082031,1.40625 -1.464844,1.38672 -1.464844,3.80859 0,1.36719 0.605469,2.34375 0.605469,0.97657 1.699219,1.36719 1.621094,0.56641 3.769531,1.03516 4.082031,0.91797 5.195313,2.32422 1.113281,1.40625 1.113281,3.73046 0,3.86719 -3.359375,6.95313 -3.339844,3.08594 -8.066406,3.08594 -2.109375,0 -3.886719,-0.50782 -1.757813,-0.48828 -3.203124,-1.48437 z"
         style="font-style:italic;font-weight:bold;font-family:'Book Antiqua';-inkscape-font-specification:'Book Antiqua, Bold Italic'"
         id="path35192" />
      <path
         d="m 76.75,344.06938 0.410156,1.26954 q -4.863281,3.92578 -6.816406,3.92578 -0.644531,0 -0.957031,-0.41016 -0.449219,-0.56641 -0.449219,-1.40625 0,-1.17187 1.367187,-6.60156 l 0.351563,-1.38672 q -2.382813,3.75 -3.300781,4.86328 -1.523438,1.875 -2.890625,2.96875 -1.347657,1.09375 -2.695313,1.64063 -0.800781,0.33203 -1.367187,0.33203 -1.054688,0 -1.660157,-0.80078 -0.605468,-0.80079 -0.605468,-2.67579 0,-2.24609 0.839843,-5.39062 0.859375,-3.14453 1.816407,-4.86328 0.507812,-0.89844 2.148437,-2.1875 3.125,-2.46094 4.394531,-3.02735 1.289063,-0.5664 2.792969,-0.5664 1.074219,0 2.128906,0.2539 1.054688,0.23438 2.070313,0.72266 l 1.816406,-0.99609 0.644531,0.41015 q -0.15625,0.3711 -0.410156,1.21094 l -0.742187,2.61719 -2.207032,9.39453 q -0.292968,1.23047 -0.292968,1.89453 0,0.68359 0.46875,0.68359 0.839843,0 3.144531,-1.875 z m -5.117188,-11.34765 q -0.878906,-0.42969 -1.699218,-0.64453 -0.800782,-0.21485 -1.5625,-0.21485 -1.347657,0 -2.304688,0.91797 -0.9375,0.89844 -2.050781,4.57031 -1.484375,4.86329 -1.484375,7.26563 0,0.68359 0.234375,1.03516 0.234375,0.33203 0.546875,0.33203 0.292969,0 0.800781,-0.33203 1.308594,-0.87891 3.046875,-3.08594 1.738281,-2.22656 2.871094,-4.60938 1.132812,-2.40234 1.425781,-4.25781 z"
         style="font-style:italic;font-weight:bold;font-family:'Book Antiqua';-inkscape-font-specification:'Book Antiqua, Bold Italic'"
         id="path35194" />
      <path
         d="m 80.792969,349.2647 -0.390625,-0.52735 0.46875,-1.5039 q 0.429687,-1.3086 1.09375,-3.8086 0.9375,-3.45703 1.503906,-6.60156 0.3125,-1.75781 0.3125,-2.32422 0,-0.58594 -0.15625,-0.89844 -0.117188,-0.17578 -0.332031,-0.17578 -0.742188,0 -3.046875,1.97266 l -0.585938,-0.99609 q 3.339844,-2.5586 4.238281,-3.16407 1.347657,-0.91797 2.285157,-1.25 0.664062,-0.2539 1.074218,-0.2539 0.527344,0 0.859375,0.33203 0.332032,0.33203 0.332032,0.8789 0,0.54688 -0.234375,1.66016 -0.605469,2.89063 -0.878907,3.75 l -0.800781,3.47656 q 2.539063,-4.39453 5.351563,-6.875 3.632812,-3.20312 5.78125,-3.20312 0.644531,0 1.035156,0.41015 0.390625,0.41016 0.390625,1.17188 0,0.78125 -0.371094,2.44141 -1.054687,3.80859 -1.660156,6.05468 1.875,-3.49609 4.02344,-5.70312 2.14844,-2.22656 4.19922,-3.30078 2.07031,-1.07422 3.35937,-1.07422 0.6836,0 1.05469,0.48828 0.39062,0.46875 0.39062,1.52344 0,1.01562 -0.91796,4.39453 l -0.82032,2.94922 q -0.41015,1.44531 -0.9375,4.3164 -0.29297,1.6211 -0.29297,1.9336 0,0.70312 0.44922,0.70312 0.25391,0 0.64453,-0.2539 1.46485,-0.87891 2.38282,-1.64063 l 0.52734,0.97656 -3.33984,2.38282 q -1.54297,0.99609 -2.5586,1.36718 -0.99609,0.3711 -1.52343,0.3711 -0.64454,0 -1.07422,-0.46875 -0.41016,-0.44922 -0.41016,-1.3086 0,-0.74218 0.37109,-2.34375 l 2.22657,-8.51562 q 0.37109,-1.60156 0.37109,-2.14844 0,-0.44922 -0.17578,-0.66406 -0.17578,-0.23438 -0.46875,-0.23438 -0.42969,0 -0.97656,0.29297 -1.11328,0.58594 -2.57813,2.16797 -1.464843,1.5625 -2.539061,3.47656 -1.074219,1.91407 -1.933594,4.76563 -0.839844,2.85156 -0.957031,4.45312 -1.328125,0 -4.160157,0.52735 l -0.46875,-0.52735 q 0.449219,-1.13281 1.835938,-5.64453 0.664062,-2.03125 1.40625,-5.72265 0.527344,-2.63672 0.527344,-3.45704 0,-0.44921 -0.195313,-0.68359 -0.195312,-0.23437 -0.527344,-0.23437 -0.683593,0 -1.816406,0.89843 -1.757812,1.40625 -3.828125,4.78516 -1.523437,2.48047 -2.304687,5.41016 -0.78125,2.91015 -0.898438,4.47265 -1.796875,0 -4.335937,0.70313 z"
         style="font-style:italic;font-weight:bold;font-family:'Book Antiqua';-inkscape-font-specification:'Book Antiqua, Bold Italic'"
         id="path35196" />
      <path
         d="m 111.80859,359.65532 -0.41015,-0.3125 q 1.03515,-3.59375 1.71875,-6.30859 0.625,-2.34375 2.1289,-8.75 1.83594,-7.85156 1.83594,-10.09766 0,-0.64453 -0.50781,-0.64453 -0.625,0 -2.96875,1.64063 l -0.52734,-0.9961 q 3.96484,-2.94922 5.46875,-3.6914 1.52343,-0.74219 2.42187,-0.74219 0.46875,0 0.74219,0.33203 0.27344,0.3125 0.27344,0.87891 0,0.41015 -0.11719,1.03515 l -0.91797,3.92578 -0.54688,2.10938 q 2.69532,-4.02344 5.27344,-5.9375 3.18359,-2.34375 5.33203,-2.34375 0.97656,0 1.44531,0.80078 0.85938,1.42578 0.85938,3.57422 0,2.46094 -0.91797,5.37109 -0.91797,2.91016 -2.01172,4.375 -1.07422,1.46485 -2.94922,2.69531 -1.85546,1.21094 -3.71093,2.08985 -1.23047,0.60547 -3.14453,0.60547 -1.01563,0 -2.12891,-0.27344 l -0.52734,1.83594 q -0.35157,1.21093 -1.05469,4.3164 -0.21485,0.97657 -0.33203,1.77735 -0.0977,0.80078 -0.11719,1.89453 -2.59766,0.17578 -4.60938,0.83984 z m 7.05079,-13.41797 q 2.28515,1.09375 3.80859,1.09375 1.34766,0 2.24609,-0.83984 1.21094,-1.15234 2.46094,-4.82422 1.25,-3.67187 1.25,-6.77734 0,-1.21094 -0.25391,-1.6211 -0.2539,-0.41015 -0.72265,-0.41015 -0.95703,0 -2.36328,1.05468 -2.10938,1.58204 -3.69141,4.375 -1.58203,2.79297 -2.44141,6.58204 z"
         style="font-style:italic;font-weight:bold;font-family:'Book Antiqua';-inkscape-font-specification:'Book Antiqua, Bold Italic'"
         id="path35198" />
      <path
         d="m 145.94922,343.99126 0.58594,1.05469 -3.4961,2.38281 q -2.08984,1.26953 -2.87109,1.54297 -0.78125,0.29297 -1.28906,0.29297 -0.60547,0 -0.9961,-0.54688 -0.39062,-0.54687 -0.39062,-1.69922 0,-1.71875 0.68359,-4.53125 l 2.51953,-10.46875 q 0.60547,-2.4414 1.28906,-6.05468 0.35157,-2.20704 0.35157,-2.59766 0,-0.39063 -0.35157,-0.56641 -0.48828,-0.2539 -1.83593,-0.2539 h -1.13282 l 0.17579,-1.17188 q 4.21875,-0.46875 8.08593,-1.79687 l 0.46875,0.42968 -1.38672,5.66407 -2.79296,11.875 q -1.38672,5.95703 -1.38672,7.40234 0,0.48828 0.13672,0.70313 0.15625,0.21484 0.39062,0.21484 0.29297,0 0.85938,-0.33203 1.46484,-0.78125 2.38281,-1.54297 z"
         style="font-style:italic;font-weight:bold;font-family:'Book Antiqua';-inkscape-font-specification:'Book Antiqua, Bold Italic'"
         id="path35200" />
      <path
         d="m 163.25391,344.01079 0.42968,1.07422 -3.32031,2.10937 q -2.07031,1.15235 -3.51562,1.60157 -1.42579,0.46875 -2.59766,0.46875 -2.38281,0 -3.69141,-1.25 -1.28906,-1.25 -1.28906,-3.59375 0,-2.73438 1.15234,-6.36719 0.82032,-2.57813 2.20704,-4.08203 1.40625,-1.50391 4.76562,-3.24219 1.89453,-0.97656 3.82813,-0.97656 1.77734,0 2.79296,0.89844 1.01563,0.8789 1.01563,2.32421 0,1.75782 -1.01563,3.26172 -0.99609,1.48438 -3.57421,2.73438 -2.57813,1.23047 -6.36719,1.83594 -0.41016,1.40625 -0.41016,2.65625 0,1.5625 0.78125,2.34375 0.80078,0.76171 2.26563,0.76171 1.11328,0 2.85156,-0.64453 1.75781,-0.64453 3.69141,-1.91406 z m -9.02344,-4.27734 q 3.02734,-0.82032 4.21875,-1.58203 1.1914,-0.76172 1.97265,-2.14844 0.80079,-1.40625 0.80079,-2.5 0,-0.83985 -0.52735,-1.34766 -0.50781,-0.50781 -1.38672,-0.50781 -0.95703,0 -1.83593,0.625 -0.87891,0.625 -1.6211,2.20703 -0.74219,1.5625 -1.62109,5.25391 z"
         style="font-style:italic;font-weight:bold;font-family:'Book Antiqua';-inkscape-font-specification:'Book Antiqua, Bold Italic'"
         id="path35202" />
      <path
         d="m 188.91797,343.46392 0.46875,1.09375 -2.92969,2.14843 q -2.26562,1.54297 -3.45703,2.05078 -1.19141,0.50782 -1.97266,0.50782 -0.99609,0 -1.60156,-0.66407 -0.60547,-0.66406 -0.60547,-1.875 0,-0.64453 0.15625,-1.5039 0.17578,-0.85938 1.64063,-7.26563 0.95703,-4.19922 1.15234,-5.33203 h -4.33594 l 0.27344,-1.07422 q 1.875,-0.41015 4.60938,-1.34765 0.70312,-3.86719 0.72265,-5.48828 2.08985,-0.54688 4.92188,-1.5625 l 0.41015,0.46875 q -0.99609,3.4375 -1.83593,6.91406 h 2.01171 q 2.1875,0 3.41797,-0.15625 l 0.15625,0.15625 -0.27343,0.99609 q -0.19532,0.66406 -0.25391,1.25 -1.71875,-0.15625 -3.41797,-0.15625 h -2.08984 q -0.66407,2.26563 -1.73828,7.40235 -0.83985,3.98437 -0.83985,4.92187 0,0.50781 0.27344,0.80078 0.27344,0.27344 0.68359,0.27344 0.58594,0 1.44532,-0.46875 1.66015,-0.89844 3.00781,-2.08984 z"
         style="font-style:italic;font-weight:bold;font-family:'Book Antiqua';-inkscape-font-specification:'Book Antiqua, Bold Italic'"
         id="path35204" />
      <path
         d="m 206.57422,344.01079 0.42969,1.07422 -3.32032,2.10937 q -2.07031,1.15235 -3.51562,1.60157 -1.42578,0.46875 -2.59766,0.46875 -2.38281,0 -3.6914,-1.25 -1.28907,-1.25 -1.28907,-3.59375 0,-2.73438 1.15235,-6.36719 0.82031,-2.57813 2.20703,-4.08203 1.40625,-1.50391 4.76562,-3.24219 1.89453,-0.97656 3.82813,-0.97656 1.77734,0 2.79297,0.89844 1.01562,0.8789 1.01562,2.32421 0,1.75782 -1.01562,3.26172 -0.9961,1.48438 -3.57422,2.73438 -2.57813,1.23047 -6.36719,1.83594 -0.41016,1.40625 -0.41016,2.65625 0,1.5625 0.78125,2.34375 0.80079,0.76171 2.26563,0.76171 1.11328,0 2.85156,-0.64453 1.75781,-0.64453 3.69141,-1.91406 z m -9.02344,-4.27734 q 3.02734,-0.82032 4.21875,-1.58203 1.19141,-0.76172 1.97266,-2.14844 0.80078,-1.40625 0.80078,-2.5 0,-0.83985 -0.52735,-1.34766 -0.50781,-0.50781 -1.38671,-0.50781 -0.95704,0 -1.83594,0.625 -0.87891,0.625 -1.6211,2.20703 -0.74218,1.5625 -1.62109,5.25391 z"
         style="font-style:italic;font-weight:bold;font-family:'Book Antiqua';-inkscape-font-specification:'Book Antiqua, Bold Italic'"
         id="path35206" />
      <path
         d="m 208.44922,348.73735 q 0.66406,-1.71875 0.72265,-4.12109 l 0.97657,-0.0781 q 0.3125,1.66016 1.32812,1.66016 0.95703,0 2.36328,-1.38672 1.42578,-1.40625 3.30078,-4.19922 -0.83984,-5.50781 -1.40625,-6.42578 -0.54687,-0.9375 -1.64062,-0.9375 -0.72266,0 -1.50391,0.48828 -0.78125,0.48828 -1.30859,1.36719 l -0.91797,-0.50781 1.15234,-1.81641 q 0.82032,-1.26953 1.25,-2.26562 0.85938,-0.39063 1.64063,-0.56641 0.78125,-0.19531 1.46484,-0.19531 1.71875,0 2.77344,1.17187 1.07422,1.15235 1.66016,4.58985 l 0.17578,0.99609 q 3.0664,-4.47266 4.43359,-5.60547 1.38672,-1.13281 2.77344,-1.13281 0.56641,0 1.30859,0.3125 -0.52734,1.21094 -0.9375,4.29687 l -0.85937,0.15625 q -0.23438,-1.28906 -1.19141,-1.28906 -1.77734,0 -4.33594,3.57422 l -0.89843,1.25 q 0.66406,4.57031 1.44531,6.73828 0.48828,1.36719 1.44531,1.36719 0.97656,0 3.16406,-2.05078 l 0.625,0.95703 -3.26171,2.67578 q -1.23047,0.91797 -2.08985,1.26953 -0.5664,0.23438 -1.11328,0.23438 -2.28516,0 -2.98828,-4.02344 l -0.52734,-3.125 -0.87891,1.25 q -2.71484,3.84766 -4.21875,5.05859 -1.03516,0.83985 -2.1875,0.83985 -0.64453,0 -1.73828,-0.52735 z"
         style="font-style:italic;font-weight:bold;font-family:'Book Antiqua';-inkscape-font-specification:'Book Antiqua, Bold Italic'"
         id="path35208" />
      <path
         d="m 242.23828,343.46392 0.46875,1.09375 -2.92969,2.14843 q -2.26562,1.54297 -3.45703,2.05078 -1.1914,0.50782 -1.97265,0.50782 -0.9961,0 -1.60157,-0.66407 -0.60547,-0.66406 -0.60547,-1.875 0,-0.64453 0.15625,-1.5039 0.17579,-0.85938 1.64063,-7.26563 0.95703,-4.19922 1.15234,-5.33203 h -4.33593 l 0.27343,-1.07422 q 1.875,-0.41015 4.60938,-1.34765 0.70312,-3.86719 0.72265,-5.48828 2.08985,-0.54688 4.92188,-1.5625 l 0.41016,0.46875 q -0.9961,3.4375 -1.83594,6.91406 h 2.01172 q 2.1875,0 3.41797,-0.15625 l 0.15625,0.15625 -0.27344,0.99609 q -0.19531,0.66406 -0.25391,1.25 -1.71875,-0.15625 -3.41797,-0.15625 h -2.08984 q -0.66406,2.26563 -1.73828,7.40235 -0.83985,3.98437 -0.83985,4.92187 0,0.50781 0.27344,0.80078 0.27344,0.27344 0.6836,0.27344 0.58593,0 1.44531,-0.46875 1.66015,-0.89844 3.00781,-2.08984 z"
         style="font-style:italic;font-weight:bold;font-family:'Book Antiqua';-inkscape-font-specification:'Book Antiqua, Bold Italic'"
         id="path35210" />
      <path
         d="m 244.95312,346.7061 q 0,-1.66015 0.82032,-2.63672 0.83984,-0.97656 2.14843,-0.97656 1.21094,0 1.91407,0.72266 0.72265,0.72265 0.72265,1.97265 0,1.54297 -0.85937,2.51954 -0.85938,0.95703 -2.14844,0.95703 -1.19141,0 -1.89453,-0.70313 -0.70313,-0.70312 -0.70313,-1.85547 z"
         style="font-style:italic;font-weight:bold;font-family:'Book Antiqua';-inkscape-font-specification:'Book Antiqua, Bold Italic'"
         id="path35212" />
      <path
         d="m 265.63672,347.0772 q -0.15625,-0.89844 -0.44922,-1.79688 l 0.44922,-0.41015 q 2.98828,2.61718 6.97265,2.61718 5.76172,0 8.14454,-3.3789 2.40234,-3.39844 3.18359,-8.88672 -2.12891,-0.0977 -7.03125,-0.0977 -2.48047,0 -3.86719,0.21485 l -0.9375,1.91406 -1.26953,-0.39063 q 0.89844,-2.77343 1.03516,-3.55468 1.79687,-0.0586 2.10937,-0.0586 0.0391,0 4.57031,0.13672 l 4.72657,-0.11719 q 0.17578,0 0.95703,0.0391 0.0976,-1.54297 0.0976,-2.51954 0,-4.04296 -2.05078,-5.99609 -2.05078,-1.97266 -5.01953,-1.97266 -1.77734,0 -4.04297,0.91797 -2.24609,0.89844 -3.4375,1.85547 -0.50781,2.30469 -0.70312,3.63281 h -1.38672 l 0.0586,-3.53515 q 0,-1.3086 -0.19531,-2.63672 l 0.13672,-0.41016 q 1.42578,-0.3125 2.71484,-0.64453 3.75,-0.97656 6.85547,-0.97656 5.54688,0 9.0625,2.87109 3.53516,2.85157 3.53516,8.37891 0,6.81641 -4.60938,11.91406 -4.58984,5.07813 -11.875,5.07813 -4.19922,0 -7.73437,-2.1875 z"
         style="font-style:italic;font-weight:bold;font-family:'Book Antiqua';-inkscape-font-specification:'Book Antiqua, Bold Italic'"
         id="path35214" />
      <path
         d="m 293.41016,349.2647 -0.39063,-0.52735 0.46875,-1.5039 q 0.42969,-1.3086 1.09375,-3.8086 0.9375,-3.45703 1.50391,-6.60156 0.3125,-1.75781 0.3125,-2.32422 0,-0.58594 -0.15625,-0.89844 -0.11719,-0.17578 -0.33203,-0.17578 -0.74219,0 -3.04688,1.97266 l -0.58594,-0.99609 q 3.33985,-2.5586 4.23828,-3.16407 1.34766,-0.91797 2.28516,-1.25 0.66406,-0.2539 1.07422,-0.2539 0.52734,0 0.85937,0.33203 0.33204,0.33203 0.33204,0.8789 0,0.54688 -0.23438,1.66016 -0.60547,2.89063 -0.87891,3.75 l -0.80078,3.47656 q 2.53907,-4.39453 5.35157,-6.875 3.63281,-3.20312 5.78125,-3.20312 0.64453,0 1.03515,0.41015 0.39063,0.41016 0.39063,1.17188 0,0.78125 -0.3711,2.44141 -1.05468,3.80859 -1.66015,6.05468 1.875,-3.49609 4.02343,-5.70312 2.14844,-2.22656 4.19922,-3.30078 2.07032,-1.07422 3.35938,-1.07422 0.68359,0 1.05469,0.48828 0.39062,0.46875 0.39062,1.52344 0,1.01562 -0.91797,4.39453 l -0.82031,2.94922 q -0.41016,1.44531 -0.9375,4.3164 -0.29297,1.6211 -0.29297,1.9336 0,0.70312 0.44922,0.70312 0.25391,0 0.64453,-0.2539 1.46484,-0.87891 2.38281,-1.64063 l 0.52735,0.97656 -3.33985,2.38282 q -1.54297,0.99609 -2.55859,1.36718 -0.99609,0.3711 -1.52344,0.3711 -0.64453,0 -1.07422,-0.46875 -0.41015,-0.44922 -0.41015,-1.3086 0,-0.74218 0.37109,-2.34375 l 2.22656,-8.51562 q 0.3711,-1.60156 0.3711,-2.14844 0,-0.44922 -0.17578,-0.66406 -0.17579,-0.23438 -0.46875,-0.23438 -0.42969,0 -0.97657,0.29297 -1.11328,0.58594 -2.57812,2.16797 -1.46485,1.5625 -2.53906,3.47656 -1.07422,1.91407 -1.9336,4.76563 -0.83984,2.85156 -0.95703,4.45312 -1.32812,0 -4.16016,0.52735 l -0.46875,-0.52735 q 0.44922,-1.13281 1.83594,-5.64453 0.66406,-2.03125 1.40625,-5.72265 0.52735,-2.63672 0.52735,-3.45704 0,-0.44921 -0.19532,-0.68359 -0.19531,-0.23437 -0.52734,-0.23437 -0.68359,0 -1.81641,0.89843 -1.75781,1.40625 -3.82812,4.78516 -1.52344,2.48047 -2.30469,5.41016 -0.78125,2.91015 -0.89844,4.47265 -1.79687,0 -4.33593,0.70313 z"
         style="font-style:italic;font-weight:bold;font-family:'Book Antiqua';-inkscape-font-specification:'Book Antiqua, Bold Italic'"
         id="path35216" />
      <path
         d="m 326.67187,343.28813 q 0,-3.90625 1.73829,-7.55859 1.01562,-2.14844 4.08203,-4.0625 3.08593,-1.91406 6.01562,-1.91406 2.22656,0 3.71094,0.72265 1.48437,0.70313 2.1875,2.01172 0.70312,1.28907 0.70312,3.41797 0,2.67578 -0.99609,5.3711 -0.97656,2.67578 -2.26562,3.98437 -1.67969,1.67969 -4.62891,3.04688 -2.07031,0.95703 -4.35547,0.95703 -3.16406,0 -4.6875,-1.48438 -1.50391,-1.5039 -1.50391,-4.49219 z m 4.6875,-0.42968 q 0,2.4414 0.89844,3.47656 0.89844,1.03516 2.71485,1.03516 1.26953,0 2.24609,-0.87891 1.28906,-1.17188 2.24609,-4.29688 0.97657,-3.14453 0.97657,-6.36718 0,-2.22657 -0.9375,-3.30078 -0.9375,-1.07422 -2.51954,-1.07422 -1.38671,0 -2.5,0.97656 -1.11328,0.97656 -1.95312,3.71094 -1.17188,3.86718 -1.17188,6.71875 z"
         style="font-style:italic;font-weight:bold;font-family:'Book Antiqua';-inkscape-font-specification:'Book Antiqua, Bold Italic'"
         id="path35218" />
      <path
         d="m 358.97656,349.2647 -0.39062,-0.52735 0.46875,-1.5039 q 0.42968,-1.3086 1.09375,-3.8086 0.9375,-3.45703 1.5039,-6.60156 0.3125,-1.75781 0.3125,-2.32422 0,-0.58594 -0.15625,-0.89844 -0.11718,-0.17578 -0.33203,-0.17578 -0.74219,0 -3.04687,1.97266 l -0.58594,-0.99609 q 3.33984,-2.5586 4.23828,-3.16407 1.34766,-0.91797 2.28516,-1.25 0.66406,-0.2539 1.07422,-0.2539 0.52734,0 0.85937,0.33203 0.33203,0.33203 0.33203,0.8789 0,0.54688 -0.23437,1.66016 -0.60547,2.89063 -0.87891,3.75 l -0.80078,3.47656 q 2.53906,-4.39453 5.35156,-6.875 3.63281,-3.20312 5.78125,-3.20312 0.64453,0 1.03516,0.41015 0.39062,0.41016 0.39062,1.17188 0,0.78125 -0.37109,2.44141 -1.05469,3.80859 -1.66016,6.05468 1.875,-3.49609 4.02344,-5.70312 2.14844,-2.22656 4.19922,-3.30078 2.07031,-1.07422 3.35937,-1.07422 0.6836,0 1.05469,0.48828 0.39063,0.46875 0.39063,1.52344 0,1.01562 -0.91797,4.39453 l -0.82031,2.94922 q -0.41016,1.44531 -0.9375,4.3164 -0.29297,1.6211 -0.29297,1.9336 0,0.70312 0.44922,0.70312 0.2539,0 0.64453,-0.2539 1.46484,-0.87891 2.38281,-1.64063 l 0.52734,0.97656 -3.33984,2.38282 q -1.54297,0.99609 -2.55859,1.36718 -0.9961,0.3711 -1.52344,0.3711 -0.64453,0 -1.07422,-0.46875 -0.41016,-0.44922 -0.41016,-1.3086 0,-0.74218 0.3711,-2.34375 L 383,336.62798 q 0.37109,-1.60156 0.37109,-2.14844 0,-0.44922 -0.17578,-0.66406 -0.17578,-0.23438 -0.46875,-0.23438 -0.42969,0 -0.97656,0.29297 -1.11328,0.58594 -2.57813,2.16797 -1.46484,1.5625 -2.53906,3.47656 -1.07422,1.91407 -1.93359,4.76563 -0.83985,2.85156 -0.95703,4.45312 -1.32813,0 -4.16016,0.52735 l -0.46875,-0.52735 q 0.44922,-1.13281 1.83594,-5.64453 0.66406,-2.03125 1.40625,-5.72265 0.52734,-2.63672 0.52734,-3.45704 0,-0.44921 -0.19531,-0.68359 -0.19531,-0.23437 -0.52734,-0.23437 -0.6836,0 -1.81641,0.89843 -1.75781,1.40625 -3.82813,4.78516 -1.52343,2.48047 -2.30468,5.41016 -0.78125,2.91015 -0.89844,4.47265 -1.79688,0 -4.33594,0.70313 z"
         style="font-style:italic;font-weight:bold;font-family:'Book Antiqua';-inkscape-font-specification:'Book Antiqua, Bold Italic'"
         id="path35220" />
      <path
         d="m 405.87109,344.01079 0.42969,1.07422 -3.32031,2.10937 q -2.07031,1.15235 -3.51563,1.60157 -1.42578,0.46875 -2.59765,0.46875 -2.38282,0 -3.69141,-1.25 -1.28906,-1.25 -1.28906,-3.59375 0,-2.73438 1.15234,-6.36719 0.82031,-2.57813 2.20703,-4.08203 1.40625,-1.50391 4.76563,-3.24219 1.89453,-0.97656 3.82812,-0.97656 1.77735,0 2.79297,0.89844 1.01563,0.8789 1.01563,2.32421 0,1.75782 -1.01563,3.26172 -0.99609,1.48438 -3.57422,2.73438 -2.57812,1.23047 -6.36718,1.83594 -0.41016,1.40625 -0.41016,2.65625 0,1.5625 0.78125,2.34375 0.80078,0.76171 2.26562,0.76171 1.11329,0 2.85157,-0.64453 1.75781,-0.64453 3.6914,-1.91406 z m -9.02343,-4.27734 q 3.02734,-0.82032 4.21875,-1.58203 1.1914,-0.76172 1.97265,-2.14844 0.80078,-1.40625 0.80078,-2.5 0,-0.83985 -0.52734,-1.34766 -0.50781,-0.50781 -1.38672,-0.50781 -0.95703,0 -1.83594,0.625 -0.8789,0.625 -1.62109,2.20703 -0.74219,1.5625 -1.62109,5.25391 z"
         style="font-style:italic;font-weight:bold;font-family:'Book Antiqua';-inkscape-font-specification:'Book Antiqua, Bold Italic'"
         id="path35222" />
      <path
         d="m 416.28125,339.75298 q 0.0781,-0.0781 1.52344,-1.77735 3.49609,-4.16015 6.01562,-6.1914 2.51953,-2.03125 5.09766,-2.03125 0.5664,0 1.13281,0.0781 v 0.21485 q -0.68359,2.36328 -0.74219,2.94922 l -0.21484,0.15625 q -1.15234,-0.52735 -1.91406,-0.52735 -1.26953,0 -2.89063,0.85938 -1.60156,0.85937 -2.89062,2.42187 0.11718,0.42969 1.26953,3.65235 1.17187,3.22265 1.875,4.66796 0.72265,1.42579 1.05469,1.69922 0.35156,0.25391 0.625,0.25391 0.91796,0 3.00781,-1.48438 l 0.39062,1.15235 q -5.2539,3.41797 -6.58203,3.41797 -0.8789,0 -1.71875,-1.46485 -0.82031,-1.48437 -2.05078,-5.01953 l -1.19141,-3.39844 -0.9375,1.01563 q -0.85937,0.91797 -1.15234,1.62109 -0.29297,0.6836 -0.74219,2.77344 -0.42968,2.07031 -0.52734,3.71094 -1.83594,0.0195 -4.49219,0.76172 l -0.33203,-0.52735 q 1.26953,-4.17968 2.32422,-9.0625 1.05469,-4.90234 1.05469,-5.54687 0,-0.80078 -0.54688,-0.80078 -0.625,0 -2.98828,1.54297 l -0.46875,-1.11329 q 5.56641,-4.0039 7.61719,-4.0039 1.32812,0 1.32812,1.54297 0,0.9375 -0.68359,3.57422 z"
         style="font-style:italic;font-weight:bold;font-family:'Book Antiqua';-inkscape-font-specification:'Book Antiqua, Bold Italic'"
         id="path35224" />
      <path
         d="m 446.61328,343.75688 0.44922,1.26954 q -3.96484,2.65625 -5.97656,3.45703 -1.99219,0.78125 -3.61328,0.78125 -2.46094,0 -3.84766,-1.40625 -1.38672,-1.42578 -1.38672,-4.00391 0,-2.32422 0.72266,-4.90234 0.74218,-2.57813 1.66015,-3.90625 0.9375,-1.32813 2.8711,-2.5 l 3.4375,-2.05078 q 1.54297,-0.74219 3.3789,-0.74219 0.91797,0 1.97266,0.2539 1.07422,0.23438 2.28516,0.74219 -0.82032,2.03125 -1.42579,5.625 h -1.34765 q 0.21484,-1.48437 0.21484,-2.05078 l -0.0391,-0.625 q -0.82031,-0.72266 -1.73828,-1.07422 -0.91797,-0.37109 -1.9336,-0.37109 -1.5039,0 -2.38281,0.76172 -1.21094,1.07422 -1.875,3.3789 -1.11328,3.88672 -1.11328,6.5625 0,1.79688 0.82031,2.79297 0.83985,0.9961 2.1875,0.9961 1.3086,0 3.16407,-0.80079 1.875,-0.80078 3.51562,-2.1875 z"
         style="font-style:italic;font-weight:bold;font-family:'Book Antiqua';-inkscape-font-specification:'Book Antiqua, Bold Italic'"
         id="path35226" />
      <path
         d="m 450.36328,349.2647 -0.39062,-0.52735 0.46875,-1.5039 q 0.42968,-1.3086 1.09375,-3.8086 0.9375,-3.45703 1.5039,-6.60156 0.3125,-1.75781 0.3125,-2.32422 0,-0.58594 -0.15625,-0.89844 -0.11719,-0.17578 -0.33203,-0.17578 -0.74219,0 -3.04687,1.97266 l -0.58594,-0.99609 q 3.33984,-2.5586 4.23828,-3.16407 1.34766,-0.91797 2.28516,-1.25 0.66406,-0.2539 1.07421,-0.2539 0.52735,0 0.85938,0.33203 0.33203,0.33203 0.33203,0.8789 0,0.54688 -0.23437,1.66016 -0.60547,2.89063 -0.87891,3.75 l -0.80078,3.47656 q 2.53906,-4.39453 5.35156,-6.875 3.63281,-3.20312 5.78125,-3.20312 0.64453,0 1.03516,0.41015 0.39062,0.41016 0.39062,1.17188 0,0.78125 -0.37109,2.44141 -1.05469,3.80859 -1.66016,6.05468 1.875,-3.49609 4.02344,-5.70312 2.14844,-2.22656 4.19922,-3.30078 2.07031,-1.07422 3.35937,-1.07422 0.6836,0 1.05469,0.48828 0.39063,0.46875 0.39063,1.52344 0,1.01562 -0.91797,4.39453 l -0.82032,2.94922 q -0.41015,1.44531 -0.9375,4.3164 -0.29296,1.6211 -0.29296,1.9336 0,0.70312 0.44921,0.70312 0.25391,0 0.64454,-0.2539 1.46484,-0.87891 2.38281,-1.64063 l 0.52734,0.97656 -3.33984,2.38282 q -1.54297,0.99609 -2.5586,1.36718 -0.99609,0.3711 -1.52343,0.3711 -0.64453,0 -1.07422,-0.46875 -0.41016,-0.44922 -0.41016,-1.3086 0,-0.74218 0.3711,-2.34375 l 2.22656,-8.51562 q 0.37109,-1.60156 0.37109,-2.14844 0,-0.44922 -0.17578,-0.66406 -0.17578,-0.23438 -0.46875,-0.23438 -0.42969,0 -0.97656,0.29297 -1.11328,0.58594 -2.57813,2.16797 -1.46484,1.5625 -2.53906,3.47656 -1.07422,1.91407 -1.93359,4.76563 -0.83985,2.85156 -0.95703,4.45312 -1.32813,0 -4.16016,0.52735 L 460.5,348.73735 q 0.44922,-1.13281 1.83594,-5.64453 0.66406,-2.03125 1.40625,-5.72265 0.52734,-2.63672 0.52734,-3.45704 0,-0.44921 -0.19531,-0.68359 -0.19531,-0.23437 -0.52735,-0.23437 -0.68359,0 -1.8164,0.89843 -1.75781,1.40625 -3.82813,4.78516 -1.52343,2.48047 -2.30468,5.41016 -0.78125,2.91015 -0.89844,4.47265 -1.79688,0 -4.33594,0.70313 z"
         style="font-style:italic;font-weight:bold;font-family:'Book Antiqua';-inkscape-font-specification:'Book Antiqua, Bold Italic'"
         id="path35228" />
      <path
         d="m 482.31641,346.7061 q 0,-1.66015 0.82031,-2.63672 0.83984,-0.97656 2.14844,-0.97656 1.21093,0 1.91406,0.72266 0.72265,0.72265 0.72265,1.97265 0,1.54297 -0.85937,2.51954 -0.85938,0.95703 -2.14844,0.95703 -1.1914,0 -1.89453,-0.70313 -0.70312,-0.70312 -0.70312,-1.85547 z"
         style="font-style:italic;font-weight:bold;font-family:'Book Antiqua';-inkscape-font-specification:'Book Antiqua, Bold Italic'"
         id="path35230" />
    </g>
    <path
       id="path14932"
       style="fill:#800000;stroke:#44f71e;stroke-width:2.26781"
       inkscape:transform-center-x="-0.41017361"
       inkscape:transform-center-y="2.5290567"
       transform="matrix(0.74377515,0,0,0.76800738,-242.2535,-186.67052)"
       d="m 321.61202,398.11199 70.37166,-65.78609 -57.84427,20.44159 84.31233,46.59841 -37.31597,-48.69637 -18.26378,94.58548 34.78173,-50.5376 -95.59996,11.85864 58.81227,17.46241 -40.82025,-87.25644 z" />
    <path
       id="path19159"
       style="fill:#8000fd;stroke:#ff00ff;stroke-width:1.714"
       transform="rotate(155)"
       d="m -17.171919,-172.68095 a 24.577887,12.805285 0 0 1 -24.577886,12.80528 24.577887,12.805285 0 0 1 -24.577887,-12.80528 24.577887,12.805285 0 0 1 24.577887,-12.80529 24.577887,12.805285 0 0 1 24.577886,12.80529 z" />
  </g>
</svg>
