<?xml version="1.0" encoding="UTF-8" standalone="no"?>
<!-- Created with Inkscape (http://www.inkscape.org/) -->

<svg
   width="760.0036"
   height="736.87592"
   id="svg2"
   version="1.1"
   inkscape:version="1.1.2 (b8e25be833, 2022-02-05)"
   sodipodi:docname="figures4.svg"
   xmlns:inkscape="http://www.inkscape.org/namespaces/inkscape"
   xmlns:sodipodi="http://sodipodi.sourceforge.net/DTD/sodipodi-0.dtd"
   xmlns="http://www.w3.org/2000/svg"
   xmlns:svg="http://www.w3.org/2000/svg"
   xmlns:rdf="http://www.w3.org/1999/02/22-rdf-syntax-ns#"
   xmlns:cc="http://creativecommons.org/ns#"
   xmlns:dc="http://purl.org/dc/elements/1.1/">
  <defs
     id="defs4">
    <rect
       x="83.842659"
       y="233.34525"
       width="554.57373"
       height="174.75639"
       id="rect3035" />
  </defs>
  <sodipodi:namedview
     id="base"
     pagecolor="#ffffff"
     bordercolor="#666666"
     borderopacity="1.0"
     inkscape:pageopacity="0.0"
     inkscape:pageshadow="2"
     inkscape:zoom="0.98994949"
     inkscape:cx="364.15999"
     inkscape:cy="326.27927"
     inkscape:document-units="px"
     inkscape:current-layer="layer1"
     showgrid="false"
     inkscape:window-width="1920"
     inkscape:window-height="1137"
     inkscape:window-x="-8"
     inkscape:window-y="-8"
     inkscape:window-maximized="1"
     inkscape:pagecheckerboard="0"
     fit-margin-top="0"
     fit-margin-left="0"
     fit-margin-right="0"
     fit-margin-bottom="0" />
  <metadata
     id="metadata7">
    <rdf:RDF>
      <cc:Work
         rdf:about="">
        <dc:format>image/svg+xml</dc:format>
        <dc:type
           rdf:resource="http://purl.org/dc/dcmitype/StillImage" />
      </cc:Work>
    </rdf:RDF>
  </metadata>
  <g
     inkscape:label="Layer 1"
     inkscape:groupmode="layer"
     id="layer1"
     transform="translate(-137.01316,-179.25994)">
    <path
       style="fill:#ff5555;stroke:none;stroke-width:10.6211px;stroke-linecap:butt;stroke-linejoin:miter;stroke-opacity:1"
       d="m 139.82033,549.29548 c 0,146.85769 51.90335,296.20348 209.66302,222.77464 157.75968,-73.42885 215.24,163.18877 346.87804,-48.95513 C 773.99207,598.00774 883.33485,593.16681 875.67588,514.87063 869.53428,452.08629 953.11603,357.20844 826.03183,298.46538 698.94766,239.7223 758.05619,252.37241 683.06821,225.42978 595.57506,193.99412 531.85485,188.8989 424.79608,214.62526 316.45616,240.65949 372.40457,249.81997 261.91238,315.24984 126.0009,395.73219 133.49109,438.95752 139.82033,549.29548 Z"
       id="path2985"
       inkscape:connector-curvature="0"
       sodipodi:nodetypes="csssssssc" />
    <path
       id="rect2987"
       style="fill:#ffff00;stroke-width:10.6211px"
       d="M 255.42194,466.77139 H 645.4389 V 667.4769 H 255.42194 Z" />
    <path
       id="path3008"
       style="fill:#ff0000;stroke-width:1.42953"
       d="M 710.95371,362.71136 A 57.142857,181.00038 0 0 1 653.81085,543.71175 57.142857,181.00038 0 0 1 596.668,362.71136 57.142857,181.00038 0 0 1 653.81085,181.71098 57.142857,181.00038 0 0 1 710.95371,362.71136 Z" />
    <path
       id="rect3010"
       style="fill:#00ff00"
       transform="rotate(-18.385113)"
       d="m 262.90197,904.27753 h 268.57142 c 28.49143,0 51.42857,22.93714 51.42857,51.42857 v 42.85714 c 0,28.49146 -22.93714,51.42856 -51.42857,51.42856 H 262.90197 c -28.49142,0 -51.42857,-22.9371 -51.42857,-51.42856 V 955.7061 c 0,-28.49143 22.93715,-51.42857 51.42857,-51.42857 z" />
    <path
       id="path3038"
       style="fill:#000080;stroke-width:2.15999"
       d="M 467.42792,266.37561 A 157.82635,87.115669 0 0 1 309.60156,353.49128 157.82635,87.115669 0 0 1 151.77521,266.37561 157.82635,87.115669 0 0 1 309.60156,179.25994 157.82635,87.115669 0 0 1 467.42792,266.37561 Z" />
    <g
       aria-label="Text atop some figures!"
       transform="matrix(1.26023,0,0,1.2058381,106.7197,123.94486)"
       id="text3033"
       style="font-size:40px;line-height:1.25;white-space:pre;shape-inside:url(#rect3035)">
      <path
         d="m 128.21031,249.10092 -2.57162,11.78386 h -4.16666 q -0.0326,-3.61328 -0.42318,-5.04558 -0.39063,-1.46484 -1.26953,-2.18099 -0.84636,-0.74869 -2.40886,-0.74869 h -2.89714 l -6.9987,31.83595 q -0.19531,0.87891 -0.26041,1.36719 -0.0651,0.45573 -0.13021,1.04167 -0.0326,0.55338 -0.0326,1.39974 0,1.49739 0.7487,2.11588 0.78125,0.61849 2.40886,0.71615 l -0.45573,2.14844 H 92.468104 l 0.455729,-2.14844 q 1.432292,-0.19531 2.278647,-0.84636 0.846355,-0.65104 1.39974,-1.92057 0.585938,-1.30208 1.171876,-3.8737 l 6.998704,-31.83595 h -2.60417 q -1.26953,0 -2.08333,0.22786 -0.781255,0.22787 -1.367193,0.65104 -0.585938,0.39063 -1.269532,1.13933 -0.683594,0.71614 -1.529949,1.98567 -0.813802,1.23698 -1.757813,3.28777 h -4.264325 l 2.441407,-11.10027 z"
         style="font-style:italic;font-weight:bold;font-size:66.6667px;font-family:Cambria;-inkscape-font-specification:'Cambria, Bold Italic';fill:#774aff"
         id="path12885" />
      <path
         d="m 149.10876,286.7637 q -3.28776,3.71094 -7.09636,5.50131 -3.77604,1.79036 -8.20313,1.79036 -3.80859,0 -6.47787,-1.33464 -2.66927,-1.33463 -4.03646,-3.9388 -1.33463,-2.63672 -1.33463,-6.28255 0,-1.69271 0.45573,-4.32943 0.61849,-3.58074 1.88802,-6.38022 1.59505,-3.45052 4.16667,-5.92448 2.57161,-2.47396 6.02214,-3.80859 3.48307,-1.33464 7.61719,-1.33464 4.88281,0 7.42188,1.79037 2.53906,1.75781 2.53906,5.40364 0,2.47396 -1.00912,4.36199 -0.97656,1.88802 -3.28776,3.41797 -2.3112,1.52994 -6.54297,2.47396 -4.19922,0.94401 -10.15625,1.07422 -0.42318,1.92057 -0.42318,3.97135 0,1.20443 0.22786,2.3112 0.22787,1.07422 0.8138,1.92057 0.58594,0.84636 1.56251,1.36719 0.97656,0.48828 2.50651,0.48828 2.86458,0 5.17578,-1.13932 2.3112,-1.17187 5.4362,-4.13412 z m -17.25261,-10.93751 q 5.98958,-0.16276 9.14714,-2.27864 3.1901,-2.14844 3.1901,-6.05469 0,-1.66016 -0.78125,-2.50651 -0.7487,-0.87891 -2.11589,-0.87891 -3.02734,0 -5.46875,2.99479 -2.40885,2.99479 -3.97135,8.72396 z"
         style="font-style:italic;font-weight:bold;font-size:66.6667px;font-family:Cambria;-inkscape-font-specification:'Cambria, Bold Italic';fill:#774aff"
         id="path12887" />
      <path
         d="m 171.47206,272.63609 q 2.92969,-2.66927 3.80859,-4.16667 0.87891,-1.4974 0.87891,-2.99479 0,-0.81381 -0.42318,-1.36719 -0.42318,-0.58594 -1.4974,-0.71615 l 0.48829,-2.14844 h 10.51432 l 0.81381,2.14844 q -1.4323,1.52995 -3.8737,3.93881 -2.44141,2.40885 -4.88282,4.6875 -2.40885,2.27865 -4.39453,4.06901 l 4.52474,10.0586 q 0.68359,1.43229 1.23698,2.44141 0.55339,1.00911 1.00912,1.52995 0.45572,0.48828 0.91145,0.78125 0.48829,0.29297 1.30209,0.48828 l -0.48828,2.14844 h -10.67709 l -4.58985,-12.23959 q -3.58073,3.15755 -4.6224,4.78516 -1.04166,1.59505 -1.04166,3.125 0,0.8789 0.39062,1.46484 0.42318,0.58594 1.52995,0.71615 l -0.48828,2.14844 h -10.51433 l -0.84635,-2.14844 q 2.08333,-2.21354 6.64062,-6.57553 4.58985,-4.39453 7.51954,-6.96615 l -3.38542,-7.68229 q -1.04167,-2.34375 -1.66016,-3.51563 -0.61849,-1.20443 -1.13932,-1.79036 -0.52083,-0.58594 -1.04167,-0.87891 -0.48828,-0.32552 -1.49739,-0.58594 l 0.48828,-2.14844 h 10.8073 z"
         style="font-style:italic;font-weight:bold;font-size:66.6667px;font-family:Cambria;-inkscape-font-specification:'Cambria, Bold Italic';fill:#774aff"
         id="path12889" />
      <path
         d="m 207.76764,287.61006 q -2.31119,2.50651 -4.13411,3.84114 -1.82292,1.33464 -3.8086,1.98568 -1.98568,0.61849 -4.58984,0.61849 -2.63672,0 -4.39454,-0.94401 -1.72526,-0.97656 -2.50651,-2.57162 -0.78125,-1.6276 -0.78125,-3.64583 0,-1.52995 0.22786,-2.89714 0.22787,-1.39974 0.94402,-4.55729 l 3.35286,-14.12761 H 187.683 l 0.45573,-2.14844 q 2.01823,-0.13021 3.15755,-0.65104 1.13932,-0.55339 1.92058,-1.59506 0.8138,-1.04166 1.52994,-2.86458 0.71615,-1.82292 1.59506,-4.94792 h 7.8125 l -1.88802,8.13802 h 7.91016 l -0.87891,4.06902 h -7.97526 l -3.61328,14.87631 q -0.22787,0.97656 -0.42318,1.92057 -0.19531,0.94401 -0.32552,1.82292 -0.13021,0.84635 -0.19532,1.43229 -0.0325,0.55339 -0.0325,1.00912 0,1.52994 0.55339,2.24609 0.55338,0.68359 1.6276,0.68359 1.46485,0 2.9948,-1.04166 1.5625,-1.04167 3.35286,-3.22266 z"
         style="font-style:italic;font-weight:bold;font-size:66.6667px;font-family:Cambria;-inkscape-font-specification:'Cambria, Bold Italic';fill:#774aff"
         id="path12891" />
      <path
         d="m 252.55934,263.06577 2.92969,-2.34375 3.64584,0.52083 -5.01303,22.68882 q -0.39062,1.72526 -0.58593,2.76693 -0.16277,1.04166 -0.16277,1.75781 0,1.46484 0.71615,2.11589 0.71615,0.65104 2.53906,0.8138 l -0.35807,2.14844 h -12.50001 l 1.75782,-6.67318 -0.42318,-0.13021 q -2.21354,2.86458 -4.13412,4.45964 -1.88802,1.5625 -3.74349,2.21354 -1.82292,0.65104 -4.23177,0.65104 -2.27865,0 -4.00391,-1.07422 -1.72526,-1.07422 -2.73438,-3.38542 -1.00911,-2.34375 -1.00911,-5.92448 0,-3.41797 0.78125,-6.90104 0.8138,-3.48308 2.3763,-6.47787 1.5625,-3.02735 3.93881,-5.17579 2.3763,-2.14844 5.37109,-3.25521 3.02735,-1.13932 6.57553,-1.13932 4.85026,0 8.26823,2.34375 z m -4.91537,10.22136 q 0.22787,-1.04167 0.35808,-2.3112 0.16276,-1.30208 0.16276,-2.50651 0,-2.14844 -0.8138,-3.25521 -0.81381,-1.10677 -2.66928,-1.10677 -3.02734,0 -5.37109,3.0599 -2.34375,3.02734 -3.77605,8.17057 -1.43229,5.14323 -1.43229,9.21225 0,2.3763 0.6836,3.54818 0.71614,1.17187 2.18099,1.17187 2.14843,0 4.36198,-2.08333 2.24609,-2.11589 3.61328,-4.94792 1.36719,-2.83203 2.44141,-7.7474 z"
         style="font-style:italic;font-weight:bold;font-size:66.6667px;font-family:Cambria;-inkscape-font-specification:'Cambria, Bold Italic';fill:#774aff"
         id="path12893" />
      <path
         d="m 284.68826,287.61006 q -2.3112,2.50651 -4.13412,3.84114 -1.82291,1.33464 -3.80859,1.98568 -1.98568,0.61849 -4.58985,0.61849 -2.63672,0 -4.39453,-0.94401 -1.72526,-0.97656 -2.50651,-2.57162 -0.78125,-1.6276 -0.78125,-3.64583 0,-1.52995 0.22786,-2.89714 0.22787,-1.39974 0.94401,-4.55729 l 3.35287,-14.12761 h -4.39454 l 0.45573,-2.14844 q 2.01823,-0.13021 3.15756,-0.65104 1.13932,-0.55339 1.92057,-1.59506 0.8138,-1.04166 1.52995,-2.86458 0.71615,-1.82292 1.59505,-4.94792 h 7.81251 l -1.88802,8.13802 h 7.91016 l -0.87891,4.06902 h -7.97527 l -3.61328,14.87631 q -0.22786,0.97656 -0.42318,1.92057 -0.19531,0.94401 -0.32552,1.82292 -0.13021,0.84635 -0.19531,1.43229 -0.0326,0.55339 -0.0326,1.00912 0,1.52994 0.55338,2.24609 0.55339,0.68359 1.62761,0.68359 1.46484,0 2.99479,-1.04166 1.5625,-1.04167 3.35287,-3.22266 z"
         style="font-style:italic;font-weight:bold;font-size:66.6667px;font-family:Cambria;-inkscape-font-specification:'Cambria, Bold Italic';fill:#774aff"
         id="path12895" />
      <path
         d="m 299.23904,294.05537 q -3.58073,0 -6.31511,-1.26953 -2.70182,-1.30208 -4.26432,-3.90625 -1.52995,-2.63672 -1.52995,-6.41277 0,-1.43229 0.19531,-3.1901 0.26042,-2.21355 0.91146,-4.52474 0.7487,-2.66928 1.88802,-4.75261 1.23698,-2.34375 2.86459,-4.03646 1.6276,-1.72526 3.51563,-2.83203 1.92057,-1.13933 4.16666,-1.72527 2.66928,-0.68359 5.59897,-0.68359 4.03646,0 6.77083,1.4974 2.73438,1.46484 4.03646,4.10156 1.33464,2.63672 1.33464,6.1198 0,4.29687 -1.43229,8.6263 -1.4323,4.32943 -3.97136,7.25912 -2.50651,2.92969 -5.95703,4.32943 -3.45053,1.39974 -7.81251,1.39974 z m -3.35286,-9.47266 q 0,3.0599 0.97656,4.58985 1.00911,1.49739 3.15755,1.49739 1.20443,0 2.27865,-0.48828 1.10677,-0.52083 2.14844,-1.72526 1.07422,-1.23698 1.92057,-3.09245 0.84636,-1.88802 1.59505,-4.6224 0.78126,-2.76693 1.20443,-5.40365 0.42318,-2.63672 0.42318,-4.91536 0,-3.25521 -1.00912,-4.78516 -0.97656,-1.52995 -3.05989,-1.52995 -2.73438,0 -4.75261,2.66927 -1.98568,2.63672 -3.45052,8.20313 -1.43229,5.53386 -1.43229,9.60287 z"
         style="font-style:italic;font-weight:bold;font-size:66.6667px;font-family:Cambria;-inkscape-font-specification:'Cambria, Bold Italic';fill:#774aff"
         id="path12897" />
      <path
         d="m 327.75468,270.84572 q 0.78125,-3.51562 0.78125,-4.88281 0,-1.33464 -0.68359,-1.85547 -0.68359,-0.55339 -2.47396,-0.71615 l 0.48828,-2.14844 8.82162,-0.35807 h 3.54818 l -1.85547,7.03125 0.39063,0.13021 q 2.21354,-2.83203 4.10156,-4.39453 1.88802,-1.59505 3.74349,-2.2461 1.85547,-0.68359 4.26433,-0.68359 2.27864,0 4.0039,1.07422 1.72527,1.07422 2.73438,3.41797 1.00912,2.3112 1.00912,5.89193 0,3.41797 -0.81381,6.90105 -0.78125,3.48307 -2.34375,6.51042 -1.52995,2.99479 -3.90625,5.14323 -2.3763,2.14844 -5.40365,3.28776 -2.99479,1.10677 -6.54297,1.10677 -2.89714,0 -5.59896,-1.00911 l -1.46485,6.86849 q -0.0977,0.52083 -0.19531,0.97656 -0.0651,0.48828 -0.0977,0.87891 -0.0326,0.42318 -0.0326,0.78125 0,1.39974 0.71615,2.01823 0.7487,0.61849 2.53906,0.8138 l -0.35807,2.14844 h -13.54167 z m 6.51042,10.64454 q -0.52083,2.40886 -0.52083,4.72005 0,2.37631 0.78125,3.41798 0.8138,1.04166 2.70182,1.04166 1.20443,0 2.21355,-0.39062 1.04166,-0.39063 2.01823,-1.26953 1.00911,-0.91146 2.01823,-2.63672 1.26953,-2.14844 2.21354,-4.88282 0.97656,-2.73438 1.52995,-5.72917 0.55339,-3.02735 0.55339,-5.53386 0,-2.40885 -0.71615,-3.54818 -0.6836,-1.17187 -2.14844,-1.17187 -2.14844,0 -4.39453,2.11589 -2.21355,2.08333 -3.54818,4.85026 -1.33464,2.76693 -2.44141,7.8125 z"
         style="font-style:italic;font-weight:bold;font-size:66.6667px;font-family:Cambria;-inkscape-font-specification:'Cambria, Bold Italic';fill:#774aff"
         id="path12899" />
      <path
         d="m 379.25212,284.41995 q 0.16276,2.34375 0.94401,3.77604 0.8138,1.39974 1.98568,1.95313 1.17187,0.52083 2.73437,0.52083 2.57162,0 3.97136,-1.23698 1.39974,-1.26953 1.39974,-3.54818 0,-1.36718 -0.45573,-2.3112 -0.45573,-0.94401 -1.49739,-1.82291 -1.04167,-0.91146 -3.38542,-2.34375 -3.25521,-1.95313 -4.75261,-4.03646 -1.46484,-2.11589 -1.46484,-4.72006 0,-4.78516 3.58073,-7.35677 3.58073,-2.57162 10.02604,-2.57162 2.50652,0 5.3711,0.42318 2.89714,0.39062 5.27344,1.07422 l -1.69271,7.77995 h -4.13412 q -0.29296,-3.02735 -1.5625,-4.45964 -1.23698,-1.43229 -3.58073,-1.43229 -2.18099,0 -3.51562,1.13932 -1.30209,1.10677 -1.30209,3.02735 0,1.20442 0.48828,2.11588 0.52084,0.91146 1.62761,1.82292 1.10677,0.91146 3.28776,2.21354 3.45052,2.05079 4.94792,4.23178 1.4974,2.18099 1.4974,5.11068 0,3.32031 -1.79037,5.66406 -1.75781,2.34375 -4.85026,3.48308 -3.0599,1.13932 -6.9987,1.13932 -3.48308,0 -6.47787,-0.42318 -2.9948,-0.42317 -5.63152,-1.13932 l 1.82292,-8.07292 z"
         style="font-style:italic;font-weight:bold;font-size:66.6667px;font-family:Cambria;-inkscape-font-specification:'Cambria, Bold Italic';fill:#774aff"
         id="path12901" />
      <path
         d="m 417.50082,294.05537 q -3.58073,0 -6.31511,-1.26953 -2.70182,-1.30208 -4.26432,-3.90625 -1.52995,-2.63672 -1.52995,-6.41277 0,-1.43229 0.19531,-3.1901 0.26042,-2.21355 0.91146,-4.52474 0.7487,-2.66928 1.88802,-4.75261 1.23698,-2.34375 2.86459,-4.03646 1.6276,-1.72526 3.51563,-2.83203 1.92057,-1.13933 4.16666,-1.72527 2.66928,-0.68359 5.59897,-0.68359 4.03646,0 6.77083,1.4974 2.73438,1.46484 4.03646,4.10156 1.33464,2.63672 1.33464,6.1198 0,4.29687 -1.43229,8.6263 -1.4323,4.32943 -3.97136,7.25912 -2.50651,2.92969 -5.95703,4.32943 -3.45053,1.39974 -7.81251,1.39974 z m -3.35286,-9.47266 q 0,3.0599 0.97656,4.58985 1.00911,1.49739 3.15755,1.49739 1.20443,0 2.27865,-0.48828 1.10677,-0.52083 2.14844,-1.72526 1.07422,-1.23698 1.92057,-3.09245 0.84636,-1.88802 1.59505,-4.6224 0.78126,-2.76693 1.20443,-5.40365 0.42318,-2.63672 0.42318,-4.91536 0,-3.25521 -1.00912,-4.78516 -0.97656,-1.52995 -3.05989,-1.52995 -2.73438,0 -4.75261,2.66927 -1.98568,2.63672 -3.45052,8.20313 -1.43229,5.53386 -1.43229,9.60287 z"
         style="font-style:italic;font-weight:bold;font-size:66.6667px;font-family:Cambria;-inkscape-font-specification:'Cambria, Bold Italic';fill:#774aff"
         id="path12903" />
      <path
         d="m 474.30424,267.4603 q 2.76693,-3.51562 5.53386,-5.11068 2.76692,-1.6276 6.21745,-1.6276 3.35286,0 5.20833,1.88802 1.88802,1.85547 1.88802,5.14323 0,2.11589 -0.65104,5.04558 l -2.66927,12.04428 q -0.32552,1.49739 -0.45573,2.3112 -0.0977,0.8138 -0.0977,1.39974 0,1.46484 0.71615,2.05078 0.7487,0.58594 2.53906,0.78125 l -0.39062,2.14844 h -13.50912 l 4.49219,-19.56382 q 0.35807,-1.52994 0.52083,-2.50651 0.19531,-0.97656 0.26042,-1.69271 0.0976,-0.71614 0.0976,-1.30208 0,-1.46484 -0.61849,-2.21354 -0.58593,-0.78125 -1.79036,-0.78125 -0.97656,0 -2.2461,0.84635 -1.26953,0.8138 -2.76692,2.44141 -1.46485,1.6276 -2.37631,3.48307 -0.91146,1.82292 -1.46484,4.58985 l -3.58073,16.69923 H 459.786 l 4.6875,-20.41017 q 0.32553,-1.30208 0.45573,-2.08333 0.13021,-0.78125 0.16276,-1.33464 0.0651,-0.55339 0.0651,-1.00912 0,-1.6927 -0.58594,-2.4414 -0.58594,-0.78125 -1.85547,-0.78125 -1.52995,0 -3.67839,1.98567 -2.11588,1.98568 -3.32031,4.06902 -1.17188,2.05078 -1.82292,5.30599 l -3.58073,16.69923 h -9.34245 l 5.11068,-22.98179 q 0.16276,-0.78125 0.42317,-2.21354 0.29297,-1.46484 0.29297,-2.44141 0,-1.36718 -0.78125,-1.85547 -0.7487,-0.52083 -2.3763,-0.65104 l 0.48828,-2.14844 8.95183,-0.35807 h 3.41797 l -1.85547,7.03125 0.39062,0.13021 q 2.27865,-2.79948 4.16667,-4.36198 1.92058,-1.59505 3.8086,-2.27865 1.88802,-0.68359 4.19922,-0.68359 3.25521,0 5.11068,1.79037 1.88802,1.79036 1.98568,4.94791 z"
         style="font-style:italic;font-weight:bold;font-size:66.6667px;font-family:Cambria;-inkscape-font-specification:'Cambria, Bold Italic';fill:#774aff"
         id="path12905" />
      <path
         d="m 526.28995,286.7637 q -3.28776,3.71094 -7.09635,5.50131 -3.77605,1.79036 -8.20313,1.79036 -3.8086,0 -6.47787,-1.33464 -2.66927,-1.33463 -4.03646,-3.9388 -1.33464,-2.63672 -1.33464,-6.28255 0,-1.69271 0.45573,-4.32943 0.61849,-3.58074 1.88802,-6.38022 1.59506,-3.45052 4.16667,-5.92448 2.57162,-2.47396 6.02214,-3.80859 3.48307,-1.33464 7.61719,-1.33464 4.88282,0 7.42188,1.79037 2.53906,1.75781 2.53906,5.40364 0,2.47396 -1.00911,4.36199 -0.97656,1.88802 -3.28776,3.41797 -2.3112,1.52994 -6.54298,2.47396 -4.19922,0.94401 -10.15625,1.07422 -0.42318,1.92057 -0.42318,3.97135 0,1.20443 0.22787,2.3112 0.22786,1.07422 0.8138,1.92057 0.58594,0.84636 1.5625,1.36719 0.97656,0.48828 2.50651,0.48828 2.86459,0 5.17579,-1.13932 2.3112,-1.17187 5.4362,-4.13412 z m -17.25261,-10.93751 q 5.98959,-0.16276 9.14714,-2.27864 3.19011,-2.14844 3.19011,-6.05469 0,-1.66016 -0.78125,-2.50651 -0.7487,-0.87891 -2.11589,-0.87891 -3.02735,0 -5.46875,2.99479 -2.40886,2.99479 -3.97136,8.72396 z"
         style="font-style:italic;font-weight:bold;font-size:66.6667px;font-family:Cambria;-inkscape-font-specification:'Cambria, Bold Italic';fill:#774aff"
         id="path12907" />
      <path
         d="m 88.268883,348.64524 0.455729,-2.14844 q 1.334636,-0.13021 1.985678,-0.32552 0.683594,-0.19531 1.171876,-0.55339 0.488281,-0.39062 0.911459,-1.23698 0.423177,-0.84635 0.911458,-2.66927 0.846355,-3.15755 2.115887,-5.17578 1.269532,-2.05078 3.222658,-3.51563 1.953122,-1.49739 4.622402,-2.18099 2.66927,-0.71615 5.95703,-0.71615 2.66927,0 4.85026,0.45573 l -1.33463,5.98959 h -3.22266 q -0.0326,-1.07422 -0.39063,-1.69271 -0.35807,-0.65104 -0.91145,-0.87891 -0.52084,-0.26041 -1.04167,-0.26041 -1.13933,0 -1.92058,0.71614 -0.78125,0.71615 -1.33463,2.08334 -0.55339,1.33463 -1.10677,3.80859 l -0.97657,4.23178 h 6.21746 l -0.91146,4.06901 h -6.21746 l -5.891925,27.21356 q -1.139324,5.24088 -3.222658,8.65886 -2.050783,3.41797 -5.338545,5.14323 -3.287762,1.75781 -8.040369,1.75781 -1.529948,0 -3.092449,-0.42318 l 0.878907,-3.54818 q 0.911458,0.26042 2.148438,0.26042 1.464845,0 2.408856,-0.42318 0.911458,-0.39062 1.660157,-1.39974 0.748698,-0.97656 1.39974,-2.89713 0.651042,-1.92058 1.432293,-5.40365 l 6.51042,-28.93882 z"
         style="font-style:italic;font-weight:bold;font-size:66.6667px;font-family:Cambria;-inkscape-font-specification:'Cambria, Bold Italic';fill:#774aff"
         id="path12909" />
      <path
         d="m 125.96421,331.58794 -1.6927,7.97526 h -8.431 l 1.79037,-7.97526 z m -7.51953,36.58856 q -0.35807,1.62761 -0.45573,2.40886 -0.0977,0.78125 -0.0977,1.30208 0,1.39974 0.71615,2.01823 0.7487,0.61849 2.53906,0.8138 l -0.35807,2.14844 h -13.54167 l 5.07812,-22.72136 q 0.42318,-1.95313 0.58594,-3.02735 0.16276,-1.10677 0.16276,-1.85547 0,-1.26953 -0.61849,-1.79037 -0.58594,-0.55338 -2.50651,-0.74869 l 0.48828,-2.14844 9.53777,-0.35808 h 3.71094 z"
         style="font-style:italic;font-weight:bold;font-size:66.6667px;font-family:Cambria;-inkscape-font-specification:'Cambria, Bold Italic';fill:#774aff"
         id="path12911" />
      <path
         d="m 130.29365,379.56974 q -0.87891,1.07422 -1.23698,2.01823 -0.32553,0.94401 -0.32553,2.05078 0,2.21354 1.52995,3.28776 1.5625,1.10677 4.65495,1.10677 2.27865,0 4.10157,-0.7487 1.82292,-0.74869 3.35286,-2.47396 1.52995,-1.69271 2.83204,-5.07812 1.33463,-3.35287 2.53906,-9.04949 l -0.42318,-0.29297 q -2.11588,2.66928 -3.9388,4.16667 -1.79037,1.4974 -3.64584,2.18099 -1.85547,0.65104 -4.23177,0.65104 -2.24609,0 -4.00391,-1.07421 -1.72526,-1.07422 -2.76693,-3.38542 -1.00911,-2.34375 -1.00911,-5.92449 0,-4.45963 1.30208,-8.78906 1.30209,-4.36198 3.67839,-7.48699 2.40886,-3.125 5.95704,-4.88281 3.58073,-1.79037 8.17057,-1.79037 2.3112,0 4.23178,0.52084 1.95312,0.48828 3.97135,1.82292 l 2.92969,-2.34376 3.64584,0.52084 -2.79948,12.72787 q -0.6836,3.125 -1.23698,5.98959 l -2.05079,10.02604 q -0.84635,4.06901 -1.72526,6.67318 -0.78125,2.27865 -1.72526,3.8737 -0.84635,1.4974 -1.98568,2.66928 -1.10677,1.17187 -2.3763,1.98567 -1.33464,0.87891 -2.96224,1.46485 -1.85547,0.68359 -4.13412,1.04167 -2.44141,0.39062 -5.56641,0.39062 -4.55729,0 -7.68229,-0.8138 -3.09245,-0.8138 -4.58985,-2.47396 -1.52995,-1.62761 -1.52995,-4.06901 0,-2.01823 1.43229,-3.8086 1.4323,-1.79037 4.23178,-3.41797 z m 19.82422,-22.98179 q 0.52084,-2.40885 0.52084,-4.6875 0,-2.24609 -0.8138,-3.35287 -0.81381,-1.10677 -2.66928,-1.10677 -2.92969,0 -5.27344,2.92969 -2.34375,2.92969 -3.84114,8.13803 -1.46485,5.20833 -1.46485,9.375 0,2.3763 0.68359,3.54818 0.71615,1.17188 2.181,1.17188 1.39974,0 2.83203,-0.87891 1.43229,-0.91146 2.99479,-2.76693 1.59505,-1.88802 2.66927,-4.52474 1.07422,-2.63672 1.92058,-6.64063 z"
         style="font-style:italic;font-weight:bold;font-size:66.6667px;font-family:Cambria;-inkscape-font-specification:'Cambria, Bold Italic';fill:#774aff"
         id="path12913" />
      <path
         d="m 167.79367,344.57623 h 13.50912 l -4.06902,17.70834 q -0.8789,3.77604 -1.07421,5.20834 -0.19532,1.43229 -0.19532,2.24609 0,1.52995 0.58594,2.21354 0.61849,0.6836 1.79037,0.6836 0.65104,0 1.39974,-0.29297 0.74869,-0.32552 1.49739,-0.91146 0.7487,-0.61849 1.82292,-1.69271 1.07422,-1.07422 1.88802,-2.27865 0.81381,-1.23698 1.33464,-2.63672 0.55338,-1.39974 1.00911,-3.54817 l 3.58073,-16.69923 h 9.34246 l -5.11068,22.98178 q -0.16276,0.78125 -0.45573,2.2461 -0.26042,1.43229 -0.26042,2.40885 0,1.36719 0.7487,1.88802 0.78125,0.48828 2.40886,0.61849 l -0.48829,2.14844 h -12.27214 l 1.75782,-6.67318 -0.39063,-0.13021 q -3.02734,3.77605 -5.85938,5.56641 -2.79948,1.75781 -6.38021,1.75781 -3.28776,0 -5.20834,-1.85546 -1.92057,-1.88803 -1.92057,-5.17579 0,-2.11589 0.65104,-5.04557 l 2.66927,-12.04428 q 0.32553,-1.4974 0.42318,-2.3112 0.13021,-0.8138 0.13021,-1.39974 0,-1.43229 -0.71615,-2.01823 -0.71614,-0.58594 -2.53906,-0.8138 z"
         style="font-style:italic;font-weight:bold;font-size:66.6667px;font-family:Cambria;-inkscape-font-specification:'Cambria, Bold Italic';fill:#774aff"
         id="path12915" />
      <path
         d="m 232.70255,353.4304 h -5.82683 q 0,-2.18099 -0.48828,-3.02735 -0.45573,-0.84635 -1.59505,-0.84635 -0.52084,0 -1.10677,0.22786 -0.55339,0.19532 -1.30209,0.7487 -0.71614,0.52084 -1.75781,1.72526 -1.00912,1.20443 -1.69271,2.34375 -0.68359,1.13933 -1.13932,2.40886 -0.45573,1.23698 -0.84636,3.15755 l -3.58073,16.69923 h -9.34245 l 5.11068,-22.98178 q 0.71614,-3.22266 0.71614,-4.65495 0,-1.36719 -0.78125,-1.85547 -0.74869,-0.52084 -2.3763,-0.65104 l 0.48828,-2.14844 8.95183,-0.35808 h 3.67839 l -2.44141,7.55209 0.39062,0.13021 q 2.73438,-3.8737 5.76173,-5.85938 3.02734,-1.98568 6.54297,-1.98568 2.14844,0 4.55729,0.61849 z"
         style="font-style:italic;font-weight:bold;font-size:66.6667px;font-family:Cambria;-inkscape-font-specification:'Cambria, Bold Italic';fill:#774aff"
         id="path12917" />
      <path
         d="m 261.34839,370.09707 q -3.28776,3.71094 -7.09635,5.50131 -3.77605,1.79036 -8.20313,1.79036 -3.8086,0 -6.47787,-1.33463 -2.66927,-1.33464 -4.03646,-3.93881 -1.33464,-2.63672 -1.33464,-6.28255 0,-1.69271 0.45573,-4.32943 0.61849,-3.58073 1.88802,-6.38021 1.59506,-3.45052 4.16667,-5.92448 2.57162,-2.47396 6.02214,-3.8086 3.48308,-1.33464 7.61719,-1.33464 4.88282,0 7.42188,1.79037 2.53907,1.75781 2.53907,5.40365 0,2.47396 -1.00912,4.36198 -0.97656,1.88802 -3.28776,3.41797 -2.3112,1.52995 -6.54297,2.47396 -4.19923,0.94401 -10.15626,1.07422 -0.42318,1.92057 -0.42318,3.97136 0,1.20442 0.22787,2.31119 0.22786,1.07422 0.8138,1.92058 0.58594,0.84635 1.5625,1.36719 0.97656,0.48828 2.50651,0.48828 2.86459,0 5.17579,-1.13933 2.3112,-1.17187 5.4362,-4.13411 z m -17.25261,-10.9375 q 5.98959,-0.16276 9.14714,-2.27865 3.19011,-2.14844 3.19011,-6.05469 0,-1.66016 -0.78125,-2.50651 -0.7487,-0.87891 -2.11589,-0.87891 -3.02735,0 -5.46875,2.9948 -2.40886,2.99479 -3.97136,8.72396 z"
         style="font-style:italic;font-weight:bold;font-size:66.6667px;font-family:Cambria;-inkscape-font-specification:'Cambria, Bold Italic';fill:#774aff"
         id="path12919" />
      <path
         d="m 270.39789,367.75332 q 0.16276,2.34375 0.94401,3.77605 0.8138,1.39974 1.98568,1.95312 1.17187,0.52084 2.73437,0.52084 2.57162,0 3.97136,-1.23698 1.39974,-1.26954 1.39974,-3.54818 0,-1.36719 -0.45573,-2.3112 -0.45573,-0.94401 -1.4974,-1.82292 -1.04166,-0.91146 -3.38542,-2.34375 -3.25521,-1.95313 -4.7526,-4.03646 -1.46485,-2.11589 -1.46485,-4.72006 0,-4.78515 3.58073,-7.35677 3.58073,-2.57162 10.02605,-2.57162 2.50651,0 5.3711,0.42318 2.89713,0.39063 5.27344,1.07422 l -1.69271,7.77995 h -4.13412 q -0.29297,-3.02734 -1.5625,-4.45964 -1.23698,-1.43229 -3.58073,-1.43229 -2.18099,0 -3.51563,1.13933 -1.30208,1.10677 -1.30208,3.02734 0,1.20443 0.48828,2.11589 0.52083,0.91146 1.62761,1.82292 1.10677,0.91145 3.28776,2.21354 3.45052,2.05078 4.94792,4.23177 1.49739,2.18099 1.49739,5.11068 0,3.32032 -1.79036,5.66407 -1.75782,2.34375 -4.85027,3.48307 -3.05989,1.13932 -6.9987,1.13932 -3.48307,0 -6.47786,-0.42317 -2.9948,-0.42318 -5.63152,-1.13933 l 1.82292,-8.07292 z"
         style="font-style:italic;font-weight:bold;font-size:66.6667px;font-family:Cambria;-inkscape-font-specification:'Cambria, Bold Italic';fill:#774aff"
         id="path12921" />
      <path
         d="m 316.49166,332.43429 -9.2448,29.91538 h -5.53385 l 4.10156,-29.91538 z m -8.75651,34.60289 -2.21355,9.83073 h -8.30078 l 2.18099,-9.83073 z"
         style="font-style:italic;font-weight:bold;font-size:66.6667px;font-family:Cambria;-inkscape-font-specification:'Cambria, Bold Italic';fill:#774aff"
         id="path12923" />
    </g>
  </g>
</svg>
