<?xml version="1.0" encoding="UTF-8" standalone="no"?>
<svg
   xmlns:dc="http://purl.org/dc/elements/1.1/"
   xmlns:cc="http://creativecommons.org/ns#"
   xmlns:rdf="http://www.w3.org/1999/02/22-rdf-syntax-ns#"
   xmlns:svg="http://www.w3.org/2000/svg"
   xmlns="http://www.w3.org/2000/svg"
   xmlns:sodipodi="http://sodipodi.sourceforge.net/DTD/sodipodi-0.dtd"
   xmlns:inkscape="http://www.inkscape.org/namespaces/inkscape"
   width="1024"
   height="1024"
   id="svg2"
   version="1.1"
   inkscape:version="1.0.2 (e86c870879, 2021-01-15)"
   sodipodi:docname="figures_1024.svg">
  <defs
     id="defs4">
    <rect
       x="140.21882"
       y="404.24257"
       width="1015.3254"
       height="550.87468"
       id="rect881" />
    <rect
       x="83.842659"
       y="233.34525"
       width="554.57373"
       height="174.75639"
       id="rect3035" />
  </defs>
  <sodipodi:namedview
     id="base"
     pagecolor="#ffffff"
     bordercolor="#666666"
     borderopacity="1.0"
     inkscape:pageopacity="0.0"
     inkscape:pageshadow="2"
     inkscape:zoom="1.3"
     inkscape:cx="344.41525"
     inkscape:cy="467.37981"
     inkscape:document-units="px"
     inkscape:current-layer="layer1"
     showgrid="false"
     inkscape:window-width="3840"
     inkscape:window-height="2067"
     inkscape:window-x="0"
     inkscape:window-y="56"
     inkscape:window-maximized="1"
     inkscape:pagecheckerboard="0"
     fit-margin-top="0"
     fit-margin-left="0"
     fit-margin-right="0"
     fit-margin-bottom="0"
     inkscape:document-rotation="0" />
  <metadata
     id="metadata7">
    <rdf:RDF>
      <cc:Work
         rdf:about="">
        <dc:format>image/svg+xml</dc:format>
        <dc:type
           rdf:resource="http://purl.org/dc/dcmitype/StillImage" />
        <dc:title></dc:title>
      </cc:Work>
    </rdf:RDF>
  </metadata>
  <g
     inkscape:label="Layer 1"
     inkscape:groupmode="layer"
     id="layer1"
     transform="translate(-137.01316,-179.25994)">
    <path
       style="fill:#9f87f1;fill-opacity:1;stroke:none;stroke-width:15.6819px;stroke-linecap:butt;stroke-linejoin:miter;stroke-opacity:1"
       d="m 144.62138,757.83616 c 0,239.7621 69.30562,483.58624 279.95931,363.70524 210.65369,-119.8811 287.40613,266.4243 463.18007,-79.9249 C 991.4196,837.36453 1137.4231,829.46115 1127.1961,701.63364 1118.9954,599.13099 1230.6007,444.232 1060.9074,348.32719 891.21416,252.42237 970.14072,273.07512 870.01061,229.08819 753.18257,177.76585 668.0981,169.44733 525.14443,211.44857 380.48007,253.95244 455.18698,268.90798 307.64873,375.72976 126.16855,507.12644 136.17007,577.69677 144.62138,757.83616 Z"
       id="path2985"
       inkscape:connector-curvature="0"
       sodipodi:nodetypes="csssssssc" />
    <path
       id="path3038"
       style="fill:#6afa6d;fill-opacity:1;stroke-width:7.2106"
       d="M 1035.3753,626.18642 A 385.3355,397.6267 0 0 1 650.03984,1023.8131 385.3355,397.6267 0 0 1 264.70434,626.18642 385.3355,397.6267 0 0 1 650.03984,228.55972 385.3355,397.6267 0 0 1 1035.3753,626.18642 Z" />
    <path
       id="path52"
       style="fill:#20899e;stroke:none;stroke-width:15.1181"
       inkscape:transform-center-x="26.307271"
       inkscape:transform-center-y="-1.7712216"
       d="M 647.61306,254.65445 780.76249,396.70477 973.2646,367.54994 879.31216,538.07854 966.52648,712.14959 775.31124,675.49174 636.71054,812.2284 612.48547,619.044 439.61121,529.48086 615.85452,446.74418 Z" />
    <path
       id="path877"
       style="fill:#ffff9e;fill-opacity:1;stroke:none;stroke-width:15.1181"
       inkscape:transform-center-x="-6.9177721"
       inkscape:transform-center-y="4.2272025"
       d="m 444.99435,932.42073 -46.58956,-60.81022 -76.50634,3.90513 43.43699,-63.1007 -27.35575,-71.5551 73.43509,21.81184 59.59956,-48.12861 1.94839,76.58116 64.19031,41.80999 -72.23093,25.51791 z" />
    <g
       aria-label="Lorem ipsum 
dolor sit amet"
       transform="matrix(1.4337465,0,0,1.3420897,159.78622,-56.476401)"
       id="text879"
       style="font-style:italic;font-variant:normal;font-weight:normal;font-stretch:extra-condensed;font-size:92.2748px;line-height:1.25;font-family:'Noto Sans';-inkscape-font-specification:'Noto Sans, Italic Extra-Condensed';font-variant-ligatures:normal;font-variant-caps:normal;font-variant-numeric:normal;font-variant-east-asian:normal;white-space:pre;shape-inside:url(#rect881);fill:#d42d63;fill-opacity:1;stroke:none">
      <path
         d="m 140.21875,488.20074 13.9335,-65.88421 h 7.38198 l -12.54937,59.24043 h 16.14809 l -1.29185,6.64378 z"
         style="font-style:italic;font-variant:normal;font-weight:normal;font-stretch:extra-condensed;font-size:92.2748px;font-family:'Noto Sans';-inkscape-font-specification:'Noto Sans, Italic Extra-Condensed';font-variant-ligatures:normal;font-variant-caps:normal;font-variant-numeric:normal;font-variant-east-asian:normal;fill:#d42d63;fill-opacity:1"
         id="path952" />
      <path
         d="m 185.43339,489.12349 q -5.62876,0 -8.7661,-3.78327 -3.04507,-3.87554 -3.04507,-11.16525 0,-3.78327 0.64592,-8.48928 0.7382,-4.79829 2.30687,-9.68886 1.56868,-4.89056 3.96782,-8.95065 2.49142,-4.15237 5.99786,-6.64379 3.59872,-2.58369 8.30473,-2.58369 5.53649,0 8.58156,3.96781 3.13734,3.87555 3.13734,11.16526 0,4.52146 -0.83047,9.59658 -0.83047,4.98284 -2.49142,9.68885 -1.56867,4.70601 -4.15236,8.58156 -2.49142,3.78326 -5.90559,6.09013 -3.41417,2.2146 -7.75109,2.2146 z m 0.7382,-6.27469 q 2.49142,0 4.52147,-1.93777 2.12232,-2.03004 3.69099,-5.35194 1.56867,-3.32189 2.67597,-7.28971 1.1073,-3.96781 1.66095,-8.0279 0.55364,-4.0601 0.55364,-7.47426 0,-4.15237 -1.38412,-6.45924 -1.29184,-2.30687 -3.96781,-2.30687 -2.67597,0 -4.79829,2.2146 -2.12232,2.12232 -3.691,5.62876 -1.56867,3.50644 -2.58369,7.56653 -1.01502,4.06009 -1.56867,8.02791 -0.46138,3.87554 -0.46138,6.82834 0,8.58155 5.35194,8.58155 z"
         style="font-style:italic;font-variant:normal;font-weight:normal;font-stretch:extra-condensed;font-size:92.2748px;font-family:'Noto Sans';-inkscape-font-specification:'Noto Sans, Italic Extra-Condensed';font-variant-ligatures:normal;font-variant-caps:normal;font-variant-numeric:normal;font-variant-east-asian:normal;fill:#d42d63;fill-opacity:1"
         id="path954" />
      <path
         d="m 208.87115,488.20074 10.42706,-49.45929 h 5.53649 l -1.01503,8.12018 h 0.27683 q 4.15236,-9.04293 10.9807,-9.04293 1.75322,0 3.50644,0.55365 l -2.12232,7.56653 q -1.38412,-0.64592 -3.32189,-0.64592 -3.13735,0 -5.53649,2.67597 -2.30687,2.58369 -3.87554,6.55151 -1.4764,3.87554 -2.30687,7.84336 l -5.44422,25.83694 z"
         style="font-style:italic;font-variant:normal;font-weight:normal;font-stretch:extra-condensed;font-size:92.2748px;font-family:'Noto Sans';-inkscape-font-specification:'Noto Sans, Italic Extra-Condensed';font-variant-ligatures:normal;font-variant-caps:normal;font-variant-numeric:normal;font-variant-east-asian:normal;fill:#d42d63;fill-opacity:1"
         id="path956" />
      <path
         d="m 249.01051,489.12349 q -6.09014,0 -9.50431,-3.87554 -3.41416,-3.96782 -3.41416,-11.25753 0,-7.47426 1.56867,-14.02577 1.66094,-6.55151 4.52146,-11.53435 2.9528,-4.98284 6.82834,-7.75108 3.96782,-2.86052 8.58156,-2.86052 4.61374,0 7.28971,2.58369 2.67596,2.5837 2.67596,7.65881 0,8.21246 -6.09013,13.10302 -6.09014,4.79829 -16.88629,4.79829 h -0.64593 q -0.73819,3.691 -0.73819,7.19744 0,5.16739 1.84549,7.56653 1.93777,2.39915 5.72104,2.39915 2.49142,0 4.61374,-0.64593 2.12232,-0.7382 4.79829,-2.21459 v 5.99786 q -2.39914,1.4764 -5.16739,2.12232 -2.76824,0.7382 -5.99786,0.7382 z m -3.78327,-28.69746 q 8.21246,0 11.90345,-3.3219 3.69099,-3.32189 3.69099,-8.67383 0,-2.12232 -1.01502,-3.32189 -1.01502,-1.29185 -3.22962,-1.29185 -3.59871,0 -6.73606,4.70602 -3.13734,4.61374 -4.89056,11.90345 z"
         style="font-style:italic;font-variant:normal;font-weight:normal;font-stretch:extra-condensed;font-size:92.2748px;font-family:'Noto Sans';-inkscape-font-specification:'Noto Sans, Italic Extra-Condensed';font-variant-ligatures:normal;font-variant-caps:normal;font-variant-numeric:normal;font-variant-east-asian:normal;fill:#d42d63;fill-opacity:1"
         id="path958" />
      <path
         d="m 269.03414,488.20074 10.51933,-49.45929 h 5.81331 l -0.92274,6.45923 h 0.27682 q 4.15237,-7.38198 10.79615,-7.38198 6.92061,0 8.30474,6.36696 h 0.18454 q 2.12233,-3.04507 4.79829,-4.70602 2.67597,-1.66094 5.99787,-1.66094 3.96781,0 6.18241,2.39914 2.21459,2.39915 2.21459,7.01289 0,1.38412 -0.27682,3.04507 -0.18455,1.66094 -0.55365,3.32189 l -7.28971,34.60305 h -7.10516 l 7.01289,-33.21893 q 0.3691,-1.66094 0.55365,-3.22962 0.27682,-1.66094 0.27682,-2.58369 0,-4.89057 -3.96782,-4.89057 -2.49142,0 -4.33691,1.75323 -1.8455,1.75322 -3.04507,4.52146 -1.1073,2.67597 -1.75322,5.62876 l -6.82834,32.01936 h -7.10516 l 7.19744,-33.95713 q 0.3691,-1.47639 0.46137,-2.86052 0.18455,-1.38412 0.18455,-2.30687 0,-4.79829 -3.87554,-4.79829 -3.13734,0 -5.25967,2.39915 -2.03004,2.39914 -3.32189,6.27469 -1.29185,3.87554 -2.21459,8.30473 l -5.72104,26.94424 z"
         style="font-style:italic;font-variant:normal;font-weight:normal;font-stretch:extra-condensed;font-size:92.2748px;font-family:'Noto Sans';-inkscape-font-specification:'Noto Sans, Italic Extra-Condensed';font-variant-ligatures:normal;font-variant-caps:normal;font-variant-numeric:normal;font-variant-east-asian:normal;fill:#d42d63;fill-opacity:1"
         id="path960" />
      <path
         d="m 357.43314,430.43671 q -3.50645,0 -3.50645,-3.59871 0,-2.39915 1.29185,-4.52147 1.38412,-2.12232 3.96782,-2.12232 3.41416,0 3.41416,3.41417 0,2.86052 -1.38412,4.89056 -1.38412,1.93777 -3.78326,1.93777 z m -16.1481,57.76403 10.51933,-49.45929 h 7.10516 l -10.51933,49.45929 z"
         style="font-style:italic;font-variant:normal;font-weight:normal;font-stretch:extra-condensed;font-size:92.2748px;font-family:'Noto Sans';-inkscape-font-specification:'Noto Sans, Italic Extra-Condensed';font-variant-ligatures:normal;font-variant-caps:normal;font-variant-numeric:normal;font-variant-east-asian:normal;fill:#d42d63;fill-opacity:1"
         id="path962" />
      <path
         d="m 354.66483,509.70077 14.94852,-70.95932 h 5.90559 l -0.92275,7.10516 h 0.27683 q 4.98284,-8.02791 11.25752,-8.02791 4.61374,0 7.01289,3.41417 2.49142,3.41416 2.49142,10.33477 0,4.24465 -0.83048,9.31976 -0.73819,4.98284 -2.30687,9.96568 -1.56867,4.98284 -3.96781,9.1352 -2.39915,4.15237 -5.62877,6.64379 -3.13734,2.49142 -7.19743,2.49142 -3.13734,0 -5.35194,-1.8455 -2.12232,-1.93777 -2.86052,-5.07511 h -0.27682 q -0.3691,2.30687 -0.7382,4.70601 -0.3691,2.30687 -0.83047,4.24464 l -3.96782,18.54724 z m 20.30046,-26.85197 q 2.49142,0 4.52147,-2.03004 2.12232,-2.12232 3.78326,-5.53649 1.66095,-3.41417 2.76825,-7.47426 1.10729,-4.15237 1.66094,-8.30473 0.64593,-4.15237 0.64593,-7.56654 0,-8.0279 -4.70602,-8.0279 -2.67597,0 -4.89056,2.30687 -2.2146,2.21459 -3.87554,5.90558 -1.66095,3.59872 -2.76825,7.84336 -1.1073,4.24464 -1.75322,8.30473 -0.55365,4.06009 -0.55365,7.10516 0,7.47426 5.16739,7.47426 z"
         style="font-style:italic;font-variant:normal;font-weight:normal;font-stretch:extra-condensed;font-size:92.2748px;font-family:'Noto Sans';-inkscape-font-specification:'Noto Sans, Italic Extra-Condensed';font-variant-ligatures:normal;font-variant-caps:normal;font-variant-numeric:normal;font-variant-east-asian:normal;fill:#d42d63;fill-opacity:1"
         id="path964" />
      <path
         d="m 406.80008,489.12349 q -3.22962,0 -5.99786,-0.7382 -2.67597,-0.64592 -4.24464,-1.56867 v -7.28971 q 1.66094,1.29185 4.33691,2.30687 2.67597,0.92275 5.16739,0.92275 3.78327,0 5.81332,-2.03005 2.12232,-2.12232 2.12232,-6.09014 0,-2.67596 -1.01503,-4.70601 -1.01502,-2.03005 -4.15236,-5.25966 -3.04507,-3.04507 -4.61374,-5.90559 -1.56867,-2.95279 -1.56867,-6.92061 0,-5.90559 3.69099,-9.96568 3.78326,-4.06009 10.33478,-4.06009 3.50644,0 6.36696,0.92275 2.86052,0.83047 4.89056,2.30687 l -3.13734,5.72103 q -3.59872,-2.86051 -7.93563,-2.86051 -3.13735,0 -5.07512,1.93777 -1.8455,1.84549 -1.8455,4.98284 0,2.49142 0.92275,4.42919 0.92275,1.93777 3.691,4.70601 2.49141,2.49142 3.96781,4.52147 1.56867,1.93777 2.2146,4.15236 0.7382,2.12232 0.7382,5.25967 0,6.92061 -3.87555,11.07297 -3.78326,4.15237 -10.79615,4.15237 z"
         style="font-style:italic;font-variant:normal;font-weight:normal;font-stretch:extra-condensed;font-size:92.2748px;font-family:'Noto Sans';-inkscape-font-specification:'Noto Sans, Italic Extra-Condensed';font-variant-ligatures:normal;font-variant-caps:normal;font-variant-numeric:normal;font-variant-east-asian:normal;fill:#d42d63;fill-opacity:1"
         id="path966" />
      <path
         d="m 437.8967,489.12349 q -4.33692,0 -6.64379,-2.49142 -2.21459,-2.49142 -2.21459,-7.10516 0,-1.66095 0.27682,-3.87554 0.3691,-2.2146 0.7382,-4.15237 l 7.01288,-32.75755 h 7.10516 l -6.73606,31.74253 q -1.01502,4.24464 -1.01502,7.56653 0,2.12232 0.92275,3.41417 0.92275,1.19957 2.95279,1.19957 4.06009,0 6.82834,-4.52146 2.76824,-4.52147 4.52146,-12.8262 l 5.62877,-26.57514 h 7.10516 l -10.42706,49.45929 h -5.72104 l 0.55365,-6.27469 h -0.27682 q -4.33692,7.19744 -10.6116,7.19744 z"
         style="font-style:italic;font-variant:normal;font-weight:normal;font-stretch:extra-condensed;font-size:92.2748px;font-family:'Noto Sans';-inkscape-font-specification:'Noto Sans, Italic Extra-Condensed';font-variant-ligatures:normal;font-variant-caps:normal;font-variant-numeric:normal;font-variant-east-asian:normal;fill:#d42d63;fill-opacity:1"
         id="path968" />
      <path
         d="m 464.74848,488.20074 10.51933,-49.45929 h 5.81331 l -0.92274,6.45923 h 0.27682 q 4.15237,-7.38198 10.79615,-7.38198 6.92061,0 8.30474,6.36696 h 0.18454 q 2.12233,-3.04507 4.79829,-4.70602 2.67597,-1.66094 5.99787,-1.66094 3.96781,0 6.18241,2.39914 2.21459,2.39915 2.21459,7.01289 0,1.38412 -0.27682,3.04507 -0.18455,1.66094 -0.55365,3.32189 l -7.28971,34.60305 h -7.10516 l 7.01289,-33.21893 q 0.3691,-1.66094 0.55365,-3.22962 0.27682,-1.66094 0.27682,-2.58369 0,-4.89057 -3.96782,-4.89057 -2.49142,0 -4.33691,1.75323 -1.8455,1.75322 -3.04507,4.52146 -1.1073,2.67597 -1.75322,5.62876 l -6.82834,32.01936 h -7.10516 l 7.19744,-33.95713 q 0.3691,-1.47639 0.46137,-2.86052 0.18455,-1.38412 0.18455,-2.30687 0,-4.79829 -3.87554,-4.79829 -3.13734,0 -5.25966,2.39915 -2.03005,2.39914 -3.3219,6.27469 -1.29185,3.87554 -2.21459,8.30473 l -5.72104,26.94424 z"
         style="font-style:italic;font-variant:normal;font-weight:normal;font-stretch:extra-condensed;font-size:92.2748px;font-family:'Noto Sans';-inkscape-font-specification:'Noto Sans, Italic Extra-Condensed';font-variant-ligatures:normal;font-variant-caps:normal;font-variant-numeric:normal;font-variant-east-asian:normal;fill:#d42d63;fill-opacity:1"
         id="path970" />
      <path
         d="m 151.93765,604.46699 q -4.52147,0 -7.01289,-3.50644 -2.49141,-3.59871 -2.49141,-10.2425 0,-4.06009 0.73819,-9.04293 0.7382,-4.98284 2.30687,-9.96568 1.56868,-5.07511 3.87555,-9.22748 2.39914,-4.24464 5.53648,-6.73606 3.22962,-2.5837 7.19744,-2.5837 3.22962,0 5.44421,1.75323 2.30687,1.75322 3.04507,4.98283 h 0.27682 q 0.46138,-2.39914 0.83048,-4.61374 0.46137,-2.30687 0.83047,-4.33691 l 3.69099,-17.53221 h 7.10516 l -14.85624,70.12885 h -5.72104 l 0.55365,-6.82834 h -0.18455 q -2.58369,3.69099 -5.16739,5.72104 -2.58369,2.03004 -5.99786,2.03004 z m 2.49142,-6.18241 q 2.95279,0 5.25966,-2.39914 2.30687,-2.39915 3.87555,-6.18241 1.66094,-3.87555 2.67596,-8.21246 1.1073,-4.33692 1.56868,-8.30473 0.55364,-3.96782 0.55364,-6.55151 0,-7.10516 -5.16738,-7.10516 -2.5837,0 -4.70602,2.21459 -2.12232,2.12232 -3.78327,5.62876 -1.56867,3.50645 -2.67597,7.65881 -1.10729,4.06009 -1.66094,8.12019 -0.55365,4.06009 -0.55365,7.19743 0,7.93563 4.61374,7.93563 z"
         style="font-style:italic;font-variant:normal;font-weight:normal;font-stretch:extra-condensed;font-size:92.2748px;font-family:'Noto Sans';-inkscape-font-specification:'Noto Sans, Italic Extra-Condensed';font-variant-ligatures:normal;font-variant-caps:normal;font-variant-numeric:normal;font-variant-east-asian:normal;fill:#d42d63;fill-opacity:1"
         id="path972" />
      <path
         d="m 193.27667,604.46699 q -5.62877,0 -8.76611,-3.78326 -3.04507,-3.87554 -3.04507,-11.16525 0,-3.78327 0.64593,-8.48929 0.73819,-4.79828 2.30687,-9.68885 1.56867,-4.89056 3.96781,-8.95066 2.49142,-4.15236 5.99787,-6.64378 3.59871,-2.5837 8.30473,-2.5837 5.53649,0 8.58155,3.96782 3.13735,3.87554 3.13735,11.16525 0,4.52147 -0.83048,9.59658 -0.83047,4.98284 -2.49142,9.68886 -1.56867,4.70601 -4.15236,8.58155 -2.49142,3.78327 -5.90559,6.09014 -3.41417,2.21459 -7.75108,2.21459 z m 0.7382,-6.27468 q 2.49142,0 4.52146,-1.93777 2.12232,-2.03005 3.69099,-5.35194 1.56868,-3.32189 2.67597,-7.28971 1.1073,-3.96782 1.66095,-8.02791 0.55365,-4.06009 0.55365,-7.47426 0,-4.15236 -1.38412,-6.45923 -1.29185,-2.30687 -3.96782,-2.30687 -2.67597,0 -4.79829,2.21459 -2.12232,2.12232 -3.69099,5.62876 -1.56867,3.50645 -2.5837,7.56654 -1.01502,4.06009 -1.56867,8.02791 -0.46137,3.87554 -0.46137,6.82833 0,8.58156 5.35194,8.58156 z"
         style="font-style:italic;font-variant:normal;font-weight:normal;font-stretch:extra-condensed;font-size:92.2748px;font-family:'Noto Sans';-inkscape-font-specification:'Noto Sans, Italic Extra-Condensed';font-variant-ligatures:normal;font-variant-caps:normal;font-variant-numeric:normal;font-variant-east-asian:normal;fill:#d42d63;fill-opacity:1"
         id="path974" />
      <path
         d="m 216.71443,603.54425 14.94852,-70.12885 h 7.10516 l -14.94852,70.12885 z"
         style="font-style:italic;font-variant:normal;font-weight:normal;font-stretch:extra-condensed;font-size:92.2748px;font-family:'Noto Sans';-inkscape-font-specification:'Noto Sans, Italic Extra-Condensed';font-variant-ligatures:normal;font-variant-caps:normal;font-variant-numeric:normal;font-variant-east-asian:normal;fill:#d42d63;fill-opacity:1"
         id="path976" />
      <path
         d="m 248.36456,604.46699 q -5.62876,0 -8.76611,-3.78326 -3.04507,-3.87554 -3.04507,-11.16525 0,-3.78327 0.64593,-8.48929 0.7382,-4.79828 2.30687,-9.68885 1.56867,-4.89056 3.96781,-8.95066 2.49142,-4.15236 5.99787,-6.64378 3.59871,-2.5837 8.30473,-2.5837 5.53649,0 8.58155,3.96782 3.13735,3.87554 3.13735,11.16525 0,4.52147 -0.83048,9.59658 -0.83047,4.98284 -2.49141,9.68886 -1.56868,4.70601 -4.15237,8.58155 -2.49142,3.78327 -5.90559,6.09014 -3.41417,2.21459 -7.75108,2.21459 z m 0.7382,-6.27468 q 2.49142,0 4.52146,-1.93777 2.12232,-2.03005 3.69099,-5.35194 1.56868,-3.32189 2.67597,-7.28971 1.1073,-3.96782 1.66095,-8.02791 0.55365,-4.06009 0.55365,-7.47426 0,-4.15236 -1.38412,-6.45923 -1.29185,-2.30687 -3.96782,-2.30687 -2.67597,0 -4.79829,2.21459 -2.12232,2.12232 -3.69099,5.62876 -1.56867,3.50645 -2.5837,7.56654 -1.01502,4.06009 -1.56867,8.02791 -0.46137,3.87554 -0.46137,6.82833 0,8.58156 5.35194,8.58156 z"
         style="font-style:italic;font-variant:normal;font-weight:normal;font-stretch:extra-condensed;font-size:92.2748px;font-family:'Noto Sans';-inkscape-font-specification:'Noto Sans, Italic Extra-Condensed';font-variant-ligatures:normal;font-variant-caps:normal;font-variant-numeric:normal;font-variant-east-asian:normal;fill:#d42d63;fill-opacity:1"
         id="path978" />
      <path
         d="m 271.80232,603.54425 10.42706,-49.4593 h 5.53648 l -1.01502,8.12019 h 0.27682 q 4.15237,-9.04294 10.98071,-9.04294 1.75322,0 3.50644,0.55365 l -2.12232,7.56654 q -1.38412,-0.64593 -3.32189,-0.64593 -3.13735,0 -5.53649,2.67597 -2.30687,2.5837 -3.87554,6.55151 -1.4764,3.87555 -2.30687,7.84336 l -5.44422,25.83695 z"
         style="font-style:italic;font-variant:normal;font-weight:normal;font-stretch:extra-condensed;font-size:92.2748px;font-family:'Noto Sans';-inkscape-font-specification:'Noto Sans, Italic Extra-Condensed';font-variant-ligatures:normal;font-variant-caps:normal;font-variant-numeric:normal;font-variant-east-asian:normal;fill:#d42d63;fill-opacity:1"
         id="path980" />
      <path
         d="m 322.1841,604.46699 q -3.22962,0 -5.99786,-0.73819 -2.67597,-0.64593 -4.24464,-1.56868 v -7.2897 q 1.66094,1.29184 4.33691,2.30687 2.67597,0.92274 5.16739,0.92274 3.78327,0 5.81331,-2.03004 2.12232,-2.12232 2.12232,-6.09014 0,-2.67597 -1.01502,-4.70601 -1.01502,-2.03005 -4.15236,-5.25967 -3.04507,-3.04507 -4.61374,-5.90559 -1.56868,-2.95279 -1.56868,-6.92061 0,-5.90558 3.691,-9.96567 3.78326,-4.0601 10.33477,-4.0601 3.50645,0 6.36696,0.92275 2.86052,0.83048 4.89057,2.30687 l -3.13734,5.72104 q -3.59872,-2.86052 -7.93564,-2.86052 -3.13734,0 -5.07511,1.93777 -1.8455,1.8455 -1.8455,4.98284 0,2.49142 0.92275,4.42919 0.92275,1.93777 3.69099,4.70602 2.49142,2.49142 3.96782,4.52146 1.56867,1.93777 2.21459,4.15237 0.7382,2.12232 0.7382,5.25966 0,6.92061 -3.87554,11.07298 -3.78327,4.15236 -10.79615,4.15236 z"
         style="font-style:italic;font-variant:normal;font-weight:normal;font-stretch:extra-condensed;font-size:92.2748px;font-family:'Noto Sans';-inkscape-font-specification:'Noto Sans, Italic Extra-Condensed';font-variant-ligatures:normal;font-variant-caps:normal;font-variant-numeric:normal;font-variant-east-asian:normal;fill:#d42d63;fill-opacity:1"
         id="path982" />
      <path
         d="m 358.17128,545.78022 q -3.50644,0 -3.50644,-3.59872 0,-2.39914 1.29184,-4.52146 1.38413,-2.12232 3.96782,-2.12232 3.41417,0 3.41417,3.41416 0,2.86052 -1.38412,4.89057 -1.38413,1.93777 -3.78327,1.93777 z m -16.14809,57.76403 10.51933,-49.4593 h 7.10516 l -10.51933,49.4593 z"
         style="font-style:italic;font-variant:normal;font-weight:normal;font-stretch:extra-condensed;font-size:92.2748px;font-family:'Noto Sans';-inkscape-font-specification:'Noto Sans, Italic Extra-Condensed';font-variant-ligatures:normal;font-variant-caps:normal;font-variant-numeric:normal;font-variant-east-asian:normal;fill:#d42d63;fill-opacity:1"
         id="path984" />
      <path
         d="m 369.2442,604.46699 q -3.78327,0 -5.53649,-2.21459 -1.66095,-2.2146 -1.66095,-6.09014 0,-2.67597 0.83048,-6.55151 l 6.27468,-29.43566 h -4.42919 l 0.83048,-4.06009 5.25966,-1.93777 3.96782,-11.3498 h 5.16739 l -2.39915,11.25752 h 7.01289 l -1.29185,6.09014 h -7.01289 l -6.36696,29.89704 q -0.27682,1.38412 -0.55365,2.67596 -0.18455,1.29185 -0.18455,2.2146 0,3.13734 2.76825,3.13734 0.83047,0 1.93777,-0.18455 1.19957,-0.27682 2.12232,-0.64592 v 5.81331 q -1.4764,0.64593 -3.32189,1.01503 -1.8455,0.36909 -3.41417,0.36909 z"
         style="font-style:italic;font-variant:normal;font-weight:normal;font-stretch:extra-condensed;font-size:92.2748px;font-family:'Noto Sans';-inkscape-font-specification:'Noto Sans, Italic Extra-Condensed';font-variant-ligatures:normal;font-variant-caps:normal;font-variant-numeric:normal;font-variant-east-asian:normal;fill:#d42d63;fill-opacity:1"
         id="path986" />
      <path
         d="m 409.47577,604.46699 q -4.70602,0 -7.19744,-3.50644 -2.49142,-3.59871 -2.49142,-10.2425 0,-4.15237 0.7382,-9.13521 0.7382,-4.98284 2.30687,-9.96568 1.56867,-5.07511 3.87554,-9.22748 2.39915,-4.15236 5.62876,-6.64378 3.22962,-2.5837 7.38199,-2.5837 6.45924,0 8.21246,7.19744 h 0.27682 l 2.03005,-6.27469 h 6.09013 l -10.51932,49.4593 h -5.72104 l 0.55365,-7.01289 h -0.18455 q -2.39915,3.69099 -5.07512,5.81331 -2.67597,2.12232 -5.90558,2.12232 z m 2.30687,-6.27468 q 3.13734,0 5.35193,-2.49142 2.2146,-2.49142 3.78327,-6.36696 1.56867,-3.87554 2.5837,-7.93564 1.10729,-4.42919 1.66094,-7.93563 0.55365,-3.50644 0.55365,-6.64378 0,-3.50645 -1.38412,-5.35194 -1.38412,-1.93777 -3.78327,-1.93777 -2.49142,0 -4.61374,2.12232 -2.12232,2.03004 -3.78326,5.44421 -1.56868,3.32189 -2.67597,7.47426 -1.1073,4.06009 -1.75323,8.12018 -0.55364,4.06009 -0.55364,7.47426 0,8.02791 4.61374,8.02791 z"
         style="font-style:italic;font-variant:normal;font-weight:normal;font-stretch:extra-condensed;font-size:92.2748px;font-family:'Noto Sans';-inkscape-font-specification:'Noto Sans, Italic Extra-Condensed';font-variant-ligatures:normal;font-variant-caps:normal;font-variant-numeric:normal;font-variant-east-asian:normal;fill:#d42d63;fill-opacity:1"
         id="path988" />
      <path
         d="m 436.41984,603.54425 10.51933,-49.4593 h 5.81331 l -0.92275,6.45924 h 0.27683 q 4.15236,-7.38199 10.79615,-7.38199 6.92061,0 8.30473,6.36697 h 0.18455 q 2.12232,-3.04507 4.79829,-4.70602 2.67597,-1.66095 5.99786,-1.66095 3.96782,0 6.18241,2.39915 2.2146,2.39914 2.2146,7.01288 0,1.38413 -0.27682,3.04507 -0.18455,1.66095 -0.55365,3.3219 l -7.28971,34.60305 h -7.10516 l 7.01288,-33.21893 q 0.3691,-1.66095 0.55365,-3.22962 0.27683,-1.66095 0.27683,-2.58369 0,-4.89057 -3.96782,-4.89057 -2.49142,0 -4.33692,1.75322 -1.84549,1.75322 -3.04506,4.52147 -1.1073,2.67597 -1.75323,5.62876 l -6.82833,32.01936 h -7.10516 l 7.19743,-33.95713 q 0.3691,-1.4764 0.46138,-2.86052 0.18455,-1.38412 0.18455,-2.30687 0,-4.79829 -3.87554,-4.79829 -3.13735,0 -5.25967,2.39915 -2.03004,2.39914 -3.32189,6.27468 -1.29185,3.87554 -2.2146,8.30473 l -5.72103,26.94425 z"
         style="font-style:italic;font-variant:normal;font-weight:normal;font-stretch:extra-condensed;font-size:92.2748px;font-family:'Noto Sans';-inkscape-font-specification:'Noto Sans, Italic Extra-Condensed';font-variant-ligatures:normal;font-variant-caps:normal;font-variant-numeric:normal;font-variant-east-asian:normal;fill:#d42d63;fill-opacity:1"
         id="path990" />
      <path
         d="m 508.20954,604.46699 q -6.09013,0 -9.5043,-3.87554 -3.41417,-3.96781 -3.41417,-11.25752 0,-7.47426 1.56867,-14.02577 1.66095,-6.55151 4.52147,-11.53435 2.95279,-4.98284 6.82833,-7.75109 3.96782,-2.86052 8.58156,-2.86052 4.61374,0 7.28971,2.5837 2.67597,2.58369 2.67597,7.65881 0,8.21245 -6.09014,13.10302 -6.09013,4.79829 -16.88629,4.79829 h -0.64592 q -0.7382,3.69099 -0.7382,7.19743 0,5.16739 1.8455,7.56654 1.93777,2.39914 5.72104,2.39914 2.49142,0 4.61374,-0.64592 2.12232,-0.7382 4.79829,-2.2146 v 5.99787 q -2.39915,1.47639 -5.16739,2.12232 -2.76825,0.73819 -5.99787,0.73819 z m -3.78326,-28.69746 q 8.21246,0 11.90345,-3.32189 3.69099,-3.32189 3.69099,-8.67383 0,-2.12232 -1.01502,-3.3219 -1.01503,-1.29184 -3.22962,-1.29184 -3.59872,0 -6.73606,4.70601 -3.13735,4.61374 -4.89057,11.90345 z"
         style="font-style:italic;font-variant:normal;font-weight:normal;font-stretch:extra-condensed;font-size:92.2748px;font-family:'Noto Sans';-inkscape-font-specification:'Noto Sans, Italic Extra-Condensed';font-variant-ligatures:normal;font-variant-caps:normal;font-variant-numeric:normal;font-variant-east-asian:normal;fill:#d42d63;fill-opacity:1"
         id="path992" />
      <path
         d="m 537.7375,604.46699 q -3.78327,0 -5.53649,-2.21459 -1.66094,-2.2146 -1.66094,-6.09014 0,-2.67597 0.83047,-6.55151 l 6.27469,-29.43566 h -4.4292 l 0.83048,-4.06009 5.25966,-1.93777 3.96782,-11.3498 h 5.16739 l -2.39915,11.25752 h 7.01289 l -1.29185,6.09014 h -7.01289 l -6.36696,29.89704 q -0.27682,1.38412 -0.55365,2.67596 -0.18454,1.29185 -0.18454,2.2146 0,3.13734 2.76824,3.13734 0.83047,0 1.93777,-0.18455 1.19957,-0.27682 2.12232,-0.64592 v 5.81331 q -1.4764,0.64593 -3.32189,1.01503 -1.8455,0.36909 -3.41417,0.36909 z"
         style="font-style:italic;font-variant:normal;font-weight:normal;font-stretch:extra-condensed;font-size:92.2748px;font-family:'Noto Sans';-inkscape-font-specification:'Noto Sans, Italic Extra-Condensed';font-variant-ligatures:normal;font-variant-caps:normal;font-variant-numeric:normal;font-variant-east-asian:normal;fill:#d42d63;fill-opacity:1"
         id="path994" />
    </g>
  </g>
</svg>
