<?xml version="1.0" encoding="UTF-8" standalone="no"?>
<svg
   xmlns:dc="http://purl.org/dc/elements/1.1/"
   xmlns:cc="http://creativecommons.org/ns#"
   xmlns:rdf="http://www.w3.org/1999/02/22-rdf-syntax-ns#"
   xmlns:svg="http://www.w3.org/2000/svg"
   xmlns="http://www.w3.org/2000/svg"
   xmlns:sodipodi="http://sodipodi.sourceforge.net/DTD/sodipodi-0.dtd"
   xmlns:inkscape="http://www.inkscape.org/namespaces/inkscape"
   width="483.77954"
   height="483.77954"
   viewBox="0 0 128.00001 128"
   version="1.1"
   id="svg284"
   inkscape:version="1.0.2 (e86c870879, 2021-01-15)"
   sodipodi:docname="figure-text.svg">
  <metadata
     id="metadata13">
    <rdf:RDF>
      <cc:Work
         rdf:about="">
        <dc:format>image/svg+xml</dc:format>
        <dc:type
           rdf:resource="http://purl.org/dc/dcmitype/StillImage" />
        <dc:title></dc:title>
      </cc:Work>
    </rdf:RDF>
  </metadata>
  <sodipodi:namedview
     id="namedview286"
     pagecolor="#ffffff"
     bordercolor="#666666"
     borderopacity="1.0"
     inkscape:pageshadow="2"
     inkscape:pageopacity="0.0"
     inkscape:pagecheckerboard="0"
     inkscape:document-units="px"
     showgrid="false"
     inkscape:zoom="1.2810466"
     inkscape:cx="123.72696"
     inkscape:cy="262.28554"
     inkscape:window-width="3840"
     inkscape:window-height="2067"
     inkscape:window-x="0"
     inkscape:window-y="56"
     inkscape:window-maximized="1"
     inkscape:current-layer="layer1"
     fit-margin-top="0"
     fit-margin-left="0"
     fit-margin-right="0"
     fit-margin-bottom="0"
     inkscape:document-rotation="0"
     units="px" />
  <defs
     id="defs281">
    <rect
       x="223.25496"
       y="37.469364"
       width="199.88364"
       height="148.18929"
       id="rect24525" />
    <rect
       x="34.346916"
       y="312.24469"
       width="462.12216"
       height="57.76527"
       id="rect2872" />
  </defs>
  <g
     inkscape:label="Layer 1"
     inkscape:groupmode="layer"
     id="layer1"
     transform="translate(-23.473908,-8.0756391)">
    <path
       id="path14932"
       style="fill:#800000;stroke:#44f71e;stroke-width:1.714"
       inkscape:transform-center-x="-0.41017361"
       inkscape:transform-center-y="2.5290567"
       d="M 56.436148,97.809131 108.77684,47.284929 65.75371,62.984221 128.46313,98.772143 100.70843,61.372972 87.124289,134.01532 112.99408,95.202069 41.889201,104.30959 85.632306,117.72085 55.271218,50.707262 Z" />
    <g
       aria-label="Aa!"
       transform="matrix(0.46942057,0,0,0.49648435,-55.799091,-18.228317)"
       id="text24523"
       style="font-size:40px;line-height:1.25;white-space:pre;shape-inside:url(#rect24525)">
      <path
         d="m 287.66211,125.05246 h -9.89063 l -6.84375,-19.45312 h -30.1875 l -6.84375,19.45312 h -9.42187 l 25.40625,-69.796875 h 12.375 z M 268.06836,97.630585 255.83398,63.36496 243.55273,97.630585 Z"
         style="font-size:96px;-inkscape-font-specification:'sans-serif, Normal'"
         id="path35141" />
      <path
         d="m 338.24023,125.05246 h -8.76562 v -5.57812 q -1.17188,0.79687 -3.1875,2.25 -1.96875,1.40625 -3.84375,2.25 -2.20313,1.07812 -5.0625,1.78125 -2.85938,0.75 -6.70313,0.75 -7.07812,0 -12,-4.6875 -4.92187,-4.6875 -4.92187,-11.95313 0,-5.95312 2.53125,-9.60937 2.57812,-3.70313 7.3125,-5.812505 4.78125,-2.109375 11.48437,-2.859375 6.70313,-0.75 14.39063,-1.125 v -1.359375 q 0,-3 -1.07813,-4.96875 -1.03125,-1.96875 -3,-3.09375 -1.875,-1.078125 -4.5,-1.453125 -2.625,-0.375 -5.48437,-0.375 -3.46875,0 -7.73438,0.9375 -4.26562,0.890625 -8.8125,2.625 h -0.46875 v -8.953125 q 2.57813,-0.703125 7.45313,-1.546875 4.875,-0.84375 9.60937,-0.84375 5.53125,0 9.60938,0.9375 4.125,0.890625 7.125,3.09375 2.95312,2.15625 4.5,5.578125 1.54687,3.421875 1.54687,8.484375 z m -8.76562,-12.89062 V 97.58371 q -4.03125,0.234375 -9.51563,0.703125 -5.4375,0.46875 -8.625,1.359375 -3.79687,1.07813 -6.14062,3.375 -2.34375,2.25 -2.34375,6.23438 0,4.5 2.71875,6.79687 2.71875,2.25 8.29687,2.25 4.64063,0 8.48438,-1.78125 3.84375,-1.82812 7.125,-4.35937 z"
         style="font-size:96px;-inkscape-font-specification:'sans-serif, Normal'"
         id="path35143" />
      <path
         d="m 370.67773,55.255585 -1.21875,50.578125 h -7.96875 l -1.3125,-50.578125 z m -0.46875,69.796875 h -9.5625 v -9.89062 h 9.5625 z"
         style="font-size:96px;-inkscape-font-specification:'sans-serif, Normal'"
         id="path35145" />
    </g>
  </g>
</svg>
