<?xml version="1.0" encoding="UTF-8" standalone="no"?>
<!-- Created with Inkscape (http://www.inkscape.org/) -->

<svg
   width="192mm"
   height="192mm"
   viewBox="0 0 192.00001 191.99999"
   version="1.1"
   id="svg284"
   inkscape:version="1.1.2 (b8e25be833, 2022-02-05)"
   sodipodi:docname="drawing.svg"
   xmlns:inkscape="http://www.inkscape.org/namespaces/inkscape"
   xmlns:sodipodi="http://sodipodi.sourceforge.net/DTD/sodipodi-0.dtd"
   xmlns="http://www.w3.org/2000/svg"
   xmlns:svg="http://www.w3.org/2000/svg">
  <sodipodi:namedview
     id="namedview286"
     pagecolor="#ffffff"
     bordercolor="#666666"
     borderopacity="1.0"
     inkscape:pageshadow="2"
     inkscape:pageopacity="0.0"
     inkscape:pagecheckerboard="0"
     inkscape:document-units="mm"
     showgrid="false"
     inkscape:zoom="0.64052329"
     inkscape:cx="200.61722"
     inkscape:cy="448.07114"
     inkscape:window-width="1920"
     inkscape:window-height="1137"
     inkscape:window-x="-8"
     inkscape:window-y="-8"
     inkscape:window-maximized="1"
     inkscape:current-layer="layer1"
     fit-margin-top="0"
     fit-margin-left="0"
     fit-margin-right="0"
     fit-margin-bottom="0" />
  <defs
     id="defs281">
    <rect
       x="441.82623"
       y="268.53043"
       width="126.4591"
       height="79.622398"
       id="rect11401" />
    <rect
       x="330.97937"
       y="209.20395"
       width="231.06107"
       height="132.70399"
       id="rect3673" />
    <rect
       x="34.346916"
       y="312.24469"
       width="462.12216"
       height="57.76527"
       id="rect2872" />
  </defs>
  <g
     inkscape:label="Layer 1"
     inkscape:groupmode="layer"
     id="layer1"
     transform="translate(29.422229,3.239478)">
    <g
       aria-label="Text"
       transform="matrix(0.26458333,0,0,0.26458333,-29.835303,27.74105)"
       id="text3671"
       style="font-style:italic;font-size:96px;line-height:1.25;font-family:Garamond;-inkscape-font-specification:'Garamond, Italic';white-space:pre;shape-inside:url(#rect3673)">
      <path
         d="m 339.79102,291.40948 0.51562,-3.23437 h 3.89063 q 3.04687,0 3.89062,-0.60938 0.89063,-0.60937 1.3125,-2.25 0.46875,-1.64062 2.20313,-11.34375 3.32812,-19.82812 7.21875,-43.3125 h -4.78125 q -8.90625,0 -11.71875,1.125 -2.0625,0.84375 -3.04688,6.75 l -0.60937,3.75 h -3.65625 q 1.5,-8.25 2.34375,-16.64062 l 0.51562,-0.42188 19.73438,0.42188 h 13.3125 q 15.60937,0 22.40625,-0.42188 l 0.70312,0.42188 -0.9375,4.875 q -1.35937,7.21875 -1.82812,11.76562 h -3.5625 q 0.375,-4.875 0.375,-7.59375 0,-2.67187 -1.26563,-3.32812 -1.21875,-0.70313 -7.82812,-0.70313 h -7.96875 q -2.25,13.59375 -7.6875,46.21875 -1.03125,6.23438 -1.03125,8.39063 0,1.54687 0.98437,2.25 1.03125,0.65625 4.3125,0.65625 h 3.9375 l -0.51562,3.23437 q -10.5,-0.46875 -16.92188,-0.46875 -6.98437,0 -14.29687,0.46875 z"
         style="font-weight:bold;font-family:'Book Antiqua';-inkscape-font-specification:'Book Antiqua, Bold Italic'"
         id="path20425" />
      <path
         d="m 426.88477,279.59698 1.03125,2.57813 -7.96875,5.0625 q -4.96875,2.76562 -8.4375,3.84375 -3.42188,1.125 -6.23438,1.125 -5.71875,0 -8.85937,-3 -3.09375,-3 -3.09375,-8.625 0,-6.5625 2.76562,-15.28125 1.96875,-6.1875 5.29688,-9.79688 3.375,-3.60937 11.4375,-7.78125 4.54687,-2.34375 9.1875,-2.34375 4.26562,0 6.70312,2.15625 2.4375,2.10938 2.4375,5.57813 0,4.21875 -2.4375,7.82812 -2.39062,3.5625 -8.57812,6.5625 -6.1875,2.95313 -15.28125,4.40625 -0.98438,3.375 -0.98438,6.375 0,3.75 1.875,5.625 1.92188,1.82813 5.4375,1.82813 2.67188,0 6.84375,-1.54688 4.21875,-1.54687 8.85938,-4.59375 z m -21.65625,-10.26562 q 7.26562,-1.96875 10.125,-3.79688 2.85937,-1.82812 4.73437,-5.15625 1.92188,-3.375 1.92188,-6 0,-2.01562 -1.26563,-3.23437 -1.21875,-1.21875 -3.32812,-1.21875 -2.29688,0 -4.40625,1.5 -2.10938,1.5 -3.89063,5.29687 -1.78125,3.75 -3.89062,12.60938 z"
         style="font-weight:bold;font-family:'Book Antiqua';-inkscape-font-specification:'Book Antiqua, Bold Italic'"
         id="path20427" />
      <path
         d="m 431.38477,290.94073 q 1.59375,-4.125 1.73437,-9.89062 l 2.34375,-0.1875 q 0.75,3.98437 3.1875,3.98437 2.29688,0 5.67188,-3.32812 3.42187,-3.375 7.92187,-10.07813 -2.01562,-13.21875 -3.375,-15.42187 -1.3125,-2.25 -3.9375,-2.25 -1.73437,0 -3.60937,1.17187 -1.875,1.17188 -3.14063,3.28125 l -2.20312,-1.21875 2.76562,-4.35937 q 1.96875,-3.04688 3,-5.4375 2.0625,-0.9375 3.9375,-1.35938 1.875,-0.46875 3.51563,-0.46875 4.125,0 6.65625,2.8125 2.57812,2.76563 3.98437,11.01563 l 0.42188,2.39062 q 7.35937,-10.73437 10.64062,-13.45312 3.32813,-2.71875 6.65625,-2.71875 1.35938,0 3.14063,0.75 -1.26563,2.90625 -2.25,10.3125 l -2.0625,0.375 q -0.5625,-3.09375 -2.85938,-3.09375 -4.26562,0 -10.40625,8.57812 l -2.15625,3 q 1.59375,10.96875 3.46875,16.17188 1.17188,3.28125 3.46875,3.28125 2.34375,0 7.59375,-4.92188 l 1.5,2.29688 -7.82812,6.42187 q -2.95313,2.20313 -5.01563,3.04688 -1.35937,0.5625 -2.67187,0.5625 -5.48438,0 -7.17188,-9.65625 l -1.26562,-7.5 -2.10938,3 q -6.51562,9.23437 -10.125,12.14062 -2.48437,2.01563 -5.25,2.01563 -1.54687,0 -4.17187,-1.26563 z"
         style="font-weight:bold;font-family:'Book Antiqua';-inkscape-font-specification:'Book Antiqua, Bold Italic'"
         id="path20429" />
      <path
         d="m 512.47852,278.28448 1.125,2.625 -7.03125,5.15625 q -5.4375,3.70313 -8.29688,4.92188 -2.85937,1.21875 -4.73437,1.21875 -2.39063,0 -3.84375,-1.59375 -1.45313,-1.59375 -1.45313,-4.5 0,-1.54688 0.375,-3.60938 0.42188,-2.0625 3.9375,-17.4375 2.29688,-10.07812 2.76563,-12.79687 h -10.40625 l 0.65625,-2.57813 q 4.5,-0.98437 11.0625,-3.23437 1.6875,-9.28125 1.73437,-13.17188 5.01563,-1.3125 11.8125,-3.75 l 0.98438,1.125 q -2.39063,8.25 -4.40625,16.59375 h 4.82812 q 5.25,0 8.20313,-0.375 l 0.375,0.375 -0.65625,2.39063 q -0.46875,1.59375 -0.60938,3 -4.125,-0.375 -8.20312,-0.375 h -5.01563 q -1.59375,5.4375 -4.17187,17.76562 -2.01563,9.5625 -2.01563,11.8125 0,1.21875 0.65625,1.92188 0.65625,0.65625 1.64063,0.65625 1.40625,0 3.46875,-1.125 3.98437,-2.15625 7.21875,-5.01563 z"
         style="font-weight:bold;font-family:'Book Antiqua';-inkscape-font-specification:'Book Antiqua, Bold Italic'"
         id="path20431" />
    </g>
    <path
       id="path310"
       style="fill:#ff7d2a;stroke-width:0.264583;fill-opacity:1"
       inkscape:transform-center-x="-2.7259619"
       inkscape:transform-center-y="0.64722053"
       d="M 23.663756,9.4716097 25.628864,32.667559 45.85118,44.198886 24.397774,53.235756 19.67987,76.031697 4.4558297,58.420843 -18.682313,60.978181 -6.6378828,41.057205 -16.220136,19.841786 6.4477726,25.1408 Z" />
    <path
       id="path312"
       style="fill:#ffd42a;stroke-width:0.247615"
       inkscape:transform-center-x="-0.82188574"
       inkscape:transform-center-y="-0.57582149"
       d="m 76.397564,38.763813 -8.200356,-7.801638 -9.017979,2.87517 -7.43382,-8.831387 5.341969,-8.505892 L 47.916549,0.82614616 72.186732,9.0592112 74.70096,18.573106 97.126187,16.457836 75.746885,27.241747 Z"
       sodipodi:nodetypes="ccccccccccc" />
    <path
       id="rect361"
       style="fill:#000080;stroke-width:0.329036"
       d="M 93.354657,28.089013 159.03337,50.394994 147.88038,95.420029 102.44227,65.265648 Z"
       sodipodi:nodetypes="ccccc" />
    <path
       id="path14932"
       style="fill:#c50000;stroke:#44ce1e;stroke-width:1.714;fill-opacity:1;stroke-opacity:1"
       inkscape:transform-center-x="-0.41017361"
       inkscape:transform-center-y="2.5290567"
       d="M -8.4164298,138.90996 43.924262,88.385762 0.90113158,104.08505 63.610547,139.87297 35.855856,102.47381 22.27171,175.11615 48.141497,136.3029 -22.963378,145.41042 20.779727,158.82168 -9.5813602,91.808095 Z" />
    <path
       id="path19159"
       style="fill:#8000fd;stroke:#ff00ff;stroke-width:2.8585"
       d="m 87.357105,173.78925 a 22.680053,38.596108 52.979784 0 1 24.795925,-41.60012 22.680053,38.596108 52.979784 0 1 40.71077,2.30478 22.680053,38.596108 52.979784 0 1 -24.79591,41.60016 22.680053,38.596108 52.979784 0 1 -40.710785,-2.30482 z" />
    <text
       xml:space="preserve"
       transform="matrix(0.26458333,0,0,0.26458333,-29.422229,-3.239478)"
       id="text11399"
       style="font-style:normal;font-weight:normal;font-size:40px;line-height:1.25;font-family:sans-serif;white-space:pre;shape-inside:url(#rect11401);fill:#000000;fill-opacity:1;stroke:none" />
  </g>
</svg>
