<?xml version="1.0" encoding="UTF-8" standalone="no"?>
<!-- Created with Inkscape (http://www.inkscape.org/) -->

<svg
   width="210mm"
   height="210mm"
   viewBox="0 0 210 210"
   version="1.1"
   id="svg5"
   inkscape:version="1.1.2 (b8e25be833, 2022-02-05)"
   sodipodi:docname="sample-text.svg"
   xmlns:inkscape="http://www.inkscape.org/namespaces/inkscape"
   xmlns:sodipodi="http://sodipodi.sourceforge.net/DTD/sodipodi-0.dtd"
   xmlns="http://www.w3.org/2000/svg"
   xmlns:svg="http://www.w3.org/2000/svg">
  <sodipodi:namedview
     id="namedview7"
     pagecolor="#ffffff"
     bordercolor="#666666"
     borderopacity="1.0"
     inkscape:pageshadow="2"
     inkscape:pageopacity="0.0"
     inkscape:pagecheckerboard="0"
     inkscape:document-units="mm"
     showgrid="false"
     fit-margin-top="0"
     fit-margin-left="0"
     fit-margin-right="0"
     fit-margin-bottom="0"
     inkscape:zoom="0.64052329"
     inkscape:cx="242.77025"
     inkscape:cy="193.59171"
     inkscape:window-width="1920"
     inkscape:window-height="1137"
     inkscape:window-x="-8"
     inkscape:window-y="-8"
     inkscape:window-maximized="1"
     inkscape:current-layer="layer1" />
  <defs
     id="defs2">
    <rect
       x="26.540798"
       y="76.499954"
       width="839.93823"
       height="535.49963"
       id="rect4392" />
    <rect
       x="-170.17336"
       y="791.54028"
       width="1000.7443"
       height="903.94843"
       id="rect48399" />
    <rect
       x="3.122447"
       y="7.8061175"
       width="716.60156"
       height="713.47913"
       id="rect37766" />
    <rect
       x="843.06067"
       y="198.27538"
       width="1106.9073"
       height="341.90793"
       id="rect32086" />
    <rect
       x="12.489788"
       y="385.62219"
       width="693.18323"
       height="320.05081"
       id="rect25224" />
    <rect
       x="9.367341"
       y="388.74466"
       width="697.86688"
       height="316.92838"
       id="rect19168" />
    <rect
       x="3.122447"
       y="177.97948"
       width="715.04034"
       height="209.20395"
       id="rect10990" />
  </defs>
  <g
     inkscape:label="Layer 1"
     inkscape:groupmode="layer"
     id="layer1"
     transform="translate(-13.223919,-18.94379)">
    <g
       aria-label="This is text

Это текст

これはテキストです"
       transform="matrix(0.26458333,0,0,0.26458333,10.74542,28.304492)"
       id="text4390"
       style="font-size:40px;line-height:1.25;white-space:pre;shape-inside:url(#rect4392)">
      <path
         d="M 79.124327,99.643844 H 56.95767 V 154.35215 H 48.707673 V 99.643844 H 26.541016 v -7.33333 h 52.583311 z"
         style="font-size:85.3333px;-inkscape-font-specification:'sans-serif, Normal'"
         id="path30087" />
      <path
         d="m 125.74931,154.35215 h -7.83333 v -26.49998 q 0,-3.20834 -0.375,-6 -0.375,-2.83333 -1.375,-4.41667 -1.04167,-1.75 -3,-2.58333 -1.95833,-0.875 -5.08333,-0.875 -3.20833,0 -6.70833,1.58333 -3.499999,1.58334 -6.708331,4.04167 v 34.74998 h -7.83333 V 89.518848 h 7.83333 v 23.458322 q 3.666665,-3.04166 7.583331,-4.75 3.91666,-1.70833 8.04166,-1.70833 7.54167,0 11.5,4.54167 3.95833,4.54166 3.95833,13.08332 z"
         style="font-size:85.3333px;-inkscape-font-specification:'sans-serif, Normal'"
         id="path30089" />
      <path
         d="m 149.2493,100.01884 h -8.83333 v -8.124993 h 8.83333 z m -0.5,54.33331 h -7.83333 v -46.54164 h 7.83333 z"
         style="font-size:85.3333px;-inkscape-font-specification:'sans-serif, Normal'"
         id="path30091" />
      <path
         d="m 197.49927,140.93549 q 0,6.375 -5.29166,10.45833 -5.25,4.08333 -14.375,4.08333 -5.16666,0 -9.49999,-1.20833 -4.29167,-1.25 -7.20833,-2.70833 v -8.79166 h 0.41666 q 3.70833,2.79166 8.25,4.45833 4.54166,1.625 8.70833,1.625 5.16666,0 8.08333,-1.66667 2.91666,-1.66667 2.91666,-5.25 0,-2.75 -1.58333,-4.16666 -1.58333,-1.41667 -6.08333,-2.41667 -1.66667,-0.375 -4.375,-0.875 -2.66666,-0.5 -4.875,-1.08333 -6.12499,-1.625 -8.70833,-4.75 -2.54166,-3.16666 -2.54166,-7.74999 0,-2.875 1.16667,-5.41667 1.20833,-2.54166 3.62499,-4.54166 2.33334,-1.95834 5.91667,-3.08334 3.625,-1.16666 8.08333,-1.16666 4.16666,0 8.41666,1.04166 4.29167,1 7.125,2.45834 v 8.37499 h -0.41667 q -3,-2.20833 -7.29166,-3.70833 -4.29167,-1.54166 -8.41667,-1.54166 -4.29166,0 -7.24999,1.66666 -2.95833,1.625 -2.95833,4.875 0,2.875 1.79166,4.33333 1.75,1.45833 5.66667,2.375 2.16666,0.5 4.83333,1 2.70833,0.5 4.5,0.91667 5.45833,1.24999 8.41666,4.29166 2.95833,3.08333 2.95833,8.16666 z"
         style="font-size:85.3333px;-inkscape-font-specification:'sans-serif, Normal'"
         id="path30093" />
      <path
         d="m 247.12426,100.01884 h -8.83333 v -8.124993 h 8.83333 z m -0.5,54.33331 h -7.83333 v -46.54164 h 7.83333 z"
         style="font-size:85.3333px;-inkscape-font-specification:'sans-serif, Normal'"
         id="path30095" />
      <path
         d="m 295.37424,140.93549 q 0,6.375 -5.29166,10.45833 -5.25,4.08333 -14.375,4.08333 -5.16666,0 -9.49999,-1.20833 -4.29167,-1.25 -7.20833,-2.70833 v -8.79166 h 0.41666 q 3.70833,2.79166 8.25,4.45833 4.54166,1.625 8.70833,1.625 5.16666,0 8.08333,-1.66667 2.91666,-1.66667 2.91666,-5.25 0,-2.75 -1.58333,-4.16666 -1.58333,-1.41667 -6.08333,-2.41667 -1.66667,-0.375 -4.375,-0.875 -2.66666,-0.5 -4.875,-1.08333 -6.12499,-1.625 -8.70833,-4.75 -2.54166,-3.16666 -2.54166,-7.74999 0,-2.875 1.16666,-5.41667 1.20834,-2.54166 3.625,-4.54166 2.33334,-1.95834 5.91667,-3.08334 3.625,-1.16666 8.08333,-1.16666 4.16666,0 8.41666,1.04166 4.29167,1 7.125,2.45834 v 8.37499 h -0.41667 q -3,-2.20833 -7.29166,-3.70833 -4.29167,-1.54166 -8.41667,-1.54166 -4.29166,0 -7.24999,1.66666 -2.95833,1.625 -2.95833,4.875 0,2.875 1.79166,4.33333 1.75,1.45833 5.66667,2.375 2.16666,0.5 4.83333,1 2.70833,0.5 4.5,0.91667 5.45833,1.24999 8.41666,4.29166 2.95833,3.08333 2.95833,8.16666 z"
         style="font-size:85.3333px;-inkscape-font-specification:'sans-serif, Normal'"
         id="path30097" />
      <path
         d="m 360.74919,153.93549 q -2.20833,0.58333 -4.83333,0.95833 -2.58333,0.375 -4.625,0.375 -7.12499,0 -10.83332,-3.83333 -3.70834,-3.83333 -3.70834,-12.29166 v -24.74999 h -5.29166 v -6.58333 h 5.29166 V 94.435513 h 7.83333 v 13.374997 h 16.16666 v 6.58333 h -16.16666 v 21.20832 q 0,3.66667 0.16667,5.75 0.16667,2.04167 1.16667,3.83333 0.91666,1.66667 2.5,2.45833 1.62499,0.75 4.91666,0.75 1.91667,0 4,-0.54166 2.08333,-0.58334 3,-0.95834 h 0.41666 z"
         style="font-size:85.3333px;-inkscape-font-specification:'sans-serif, Normal'"
         id="path30099" />
      <path
         d="M 409.16585,131.89383 H 374.8742 q 0,4.29167 1.29167,7.5 1.29166,3.16666 3.54166,5.20833 2.16667,2 5.125,3 3,1 6.58333,1 4.75,0 9.54166,-1.875 4.83334,-1.91667 6.875,-3.75 h 0.41667 v 8.54166 q -3.95833,1.66667 -8.08333,2.79167 -4.125,1.125 -8.66667,1.125 -11.58332,0 -18.08332,-6.25 -6.5,-6.29166 -6.5,-17.83333 0,-11.41666 6.20833,-18.12499 6.25,-6.70833 16.41666,-6.70833 9.41666,0 14.5,5.5 5.12499,5.5 5.12499,15.62499 z m -7.62499,-6 q -0.0417,-6.16666 -3.125,-9.54166 -3.04167,-3.375 -9.29166,-3.375 -6.29167,0 -10.04167,3.70833 -3.70833,3.70834 -4.20833,9.20833 z"
         style="font-size:85.3333px;-inkscape-font-specification:'sans-serif, Normal'"
         id="path30101" />
      <path
         d="m 461.3325,154.35215 h -9.875 l -13.20832,-17.87499 -13.29167,17.87499 h -9.12499 l 18.16666,-23.20832 -17.99999,-23.33332 h 9.87499 l 13.125,17.58332 13.16666,-17.58332 h 9.16666 l -18.29166,22.91665 z"
         style="font-size:85.3333px;-inkscape-font-specification:'sans-serif, Normal'"
         id="path30103" />
      <path
         d="m 495.70748,153.93549 q -2.20834,0.58333 -4.83334,0.95833 -2.58333,0.375 -4.62499,0.375 -7.125,0 -10.83333,-3.83333 -3.70833,-3.83333 -3.70833,-12.29166 v -24.74999 h -5.29167 v -6.58333 h 5.29167 V 94.435513 h 7.83333 v 13.374997 h 16.16666 v 6.58333 h -16.16666 v 21.20832 q 0,3.66667 0.16666,5.75 0.16667,2.04167 1.16667,3.83333 0.91666,1.66667 2.5,2.45833 1.625,0.75 4.91666,0.75 1.91667,0 4,-0.54166 2.08333,-0.58334 3,-0.95834 h 0.41667 z"
         style="font-size:85.3333px;-inkscape-font-specification:'sans-serif, Normal'"
         id="path30105" />
      <path
         d="m 73.249329,312.51876 q 3.999999,4 6.166665,9.91667 2.166665,5.91666 2.166665,13.99999 0,7.16666 -2.208332,13.20833 -2.166666,5.99999 -6.291664,10.29166 -4.249998,4.41666 -9.958329,6.66666 -5.666665,2.20834 -12.458328,2.20834 -5.874998,0 -11.166662,-1.125 -5.291665,-1.125 -8.916663,-2.66667 v -9.125 h 0.666666 q 3.374999,2.70834 8.499996,4.33334 5.166665,1.58333 11.041663,1.58333 5.124997,0 9.374996,-1.79167 4.249998,-1.83333 7.08333,-4.95833 2.999999,-3.33333 4.499998,-7.5 1.541666,-4.20833 1.541666,-9.54166 H 39.41601 v -7.20833 h 33.45832 q -0.583333,-4.95833 -2.499999,-8.58333 -1.916666,-3.66666 -4.874998,-6.04166 -2.958332,-2.375 -6.708331,-3.5 -3.749998,-1.16667 -7.999996,-1.16667 -5.708331,0 -10.708329,1.625 -4.999998,1.58334 -8.624997,4.375 h -0.708333 v -9.16666 q 3.874999,-1.625 9.166663,-2.70833 5.291665,-1.125 10.833329,-1.125 7.166664,0 12.791661,2 5.666664,1.99999 9.708329,5.99999 z"
         style="font-size:85.3333px;-inkscape-font-specification:'sans-serif, Normal'"
         id="path30107" />
      <path
         d="m 128.29097,328.01876 h -16.83332 v 39.66665 h -7.83333 V 328.01876 H 86.790991 v -6.875 h 41.499979 z"
         style="font-size:85.3333px;-inkscape-font-specification:'sans-serif, Normal'"
         id="path30109" />
      <path
         d="m 176.08262,344.43542 q 0,11.37499 -5.83333,17.95832 -5.83333,6.58333 -15.62499,6.58333 -9.875,0 -15.70833,-6.58333 -5.79166,-6.58333 -5.79166,-17.95832 0,-11.375 5.79166,-17.95833 5.83333,-6.625 15.70833,-6.625 9.79166,0 15.62499,6.625 5.83333,6.58333 5.83333,17.95833 z m -8.08333,0 q 0,-9.04167 -3.54166,-13.41666 -3.54167,-4.41667 -9.83333,-4.41667 -6.375,0 -9.91667,4.41667 -3.49999,4.37499 -3.49999,13.41666 0,8.74999 3.54166,13.29166 3.54167,4.5 9.875,4.5 6.24999,0 9.79166,-4.45834 3.58333,-4.49999 3.58333,-13.33332 z"
         style="font-size:85.3333px;-inkscape-font-specification:'sans-serif, Normal'"
         id="path30111" />
      <path
         d="m 252.41592,328.01876 h -16.83333 v 39.66665 h -7.83333 v -39.66665 h -16.83333 v -6.875 h 41.49999 z"
         style="font-size:85.3333px;-inkscape-font-specification:'sans-serif, Normal'"
         id="path30113" />
      <path
         d="m 299.49924,345.22708 h -34.29165 q 0,4.29167 1.29167,7.5 1.29166,3.16666 3.54166,5.20833 2.16667,2 5.125,3 3,1 6.58333,1 4.75,0 9.54166,-1.875 4.83333,-1.91667 6.875,-3.75 h 0.41667 v 8.54166 q -3.95833,1.66667 -8.08333,2.79167 -4.125,1.125 -8.66667,1.125 -11.58332,0 -18.08332,-6.25 -6.5,-6.29166 -6.5,-17.83332 0,-11.41667 6.20833,-18.125 6.25,-6.70833 16.41666,-6.70833 9.41666,0 14.5,5.5 5.12499,5.5 5.12499,15.62499 z m -7.62499,-5.99999 q -0.0417,-6.16667 -3.125,-9.54167 -3.04167,-3.375 -9.29167,-3.375 -6.29166,0 -10.04166,3.70834 -3.70833,3.70833 -4.20833,9.20833 z"
         style="font-size:85.3333px;-inkscape-font-specification:'sans-serif, Normal'"
         id="path30115" />
      <path
         d="m 353.37421,367.68541 h -10.25 l -19.33332,-21.33333 h -4.25 v 21.33333 h -7.83333 v -46.54165 h 7.83333 v 20.08332 q 3.875,0 6.24999,-1.375 2.375,-1.41666 4.04167,-4.49999 0.58333,-1.125 1.125,-2.375 0.58333,-1.29167 1.125,-2.45833 2.16666,-4.70834 5.41666,-7.04167 3.25,-2.33333 9.33333,-2.33333 h 3.58333 v 6.75 h -3.45833 q -3.29166,0 -5.16666,1.41666 -1.83333,1.375 -3.33333,4.875 -1.66667,3.91667 -3.54167,5.875 -1.83333,1.91666 -3.91666,2.91666 z"
         style="font-size:85.3333px;-inkscape-font-specification:'sans-serif, Normal'"
         id="path30117" />
      <path
         d="m 396.70754,364.76874 q -4.79166,2.25 -8.24999,3.08333 -3.41667,0.875 -6.83333,0.875 -5.08334,0 -9.33333,-1.45833 -4.25,-1.5 -7.29167,-4.5 -3.04166,-3 -4.75,-7.58333 -1.66666,-4.58333 -1.66666,-10.70833 0,-11.12499 6.16666,-17.74999 6.16667,-6.66666 16.875,-6.66666 4.04166,0 7.91666,1.125 3.91666,1.125 7.16666,2.74999 v 8.70833 h -0.45833 q -3.875,-2.95833 -7.66666,-4.37499 -3.75,-1.41667 -7.29167,-1.41667 -6.95833,0 -10.79166,4.66666 -3.79167,4.66667 -3.79167,12.95833 0,8.29167 3.79167,12.875 3.79167,4.58333 10.79166,4.58333 2.45833,0 4.875,-0.625 2.45833,-0.625 4.45833,-1.625 1.58333,-0.79167 3.25,-1.875 1.70833,-1.125 2.375,-1.66667 h 0.45833 z"
         style="font-size:85.3333px;-inkscape-font-specification:'sans-serif, Normal'"
         id="path30119" />
      <path
         d="m 441.66586,328.01876 h -16.83333 v 39.66665 h -7.83333 v -39.66665 h -16.83333 v -6.875 h 41.49999 z"
         style="font-size:85.3333px;-inkscape-font-specification:'sans-serif, Normal'"
         id="path30121" />
      <path
         d="m 60.874335,585.4998 q -10.333329,0 -14.333328,-4 -3.999998,-3.99999 -3.999998,-10.66666 0,-3.66666 1.333333,-8.66666 l 7.666663,1 q -1.666666,5.33333 -1.666666,7.66666 0,3 1.999999,5 2.333333,2.33333 9.33333,2.33333 h 36.333318 v 7.33333 z M 47.541007,529.16649 h 43.333315 v 7.33333 H 47.541007 Z"
         style="font-size:85.3333px;-inkscape-font-specification:'sans-serif, Normal'"
         id="path30123" />
      <path
         d="m 167.54096,549.16648 q 0.33333,-6.33333 -3.66667,-6.33333 -5.66666,0 -21.99999,16.33333 v 33.33332 h -6.66666 v -27.33332 l -14.66666,18.33332 -5.33333,-5.33333 13.33332,-15.66666 q 3.66667,-4.66666 6.66667,-9.66666 v -8 l -14.66666,5 -2,-7 16.66666,-4.33333 v -19.66666 h 5.99999 q 3,0.66667 0.66667,2.66667 v 14.99999 l 3.66667,2 q 2.99999,1.33334 -0.66667,3 l -3,6.33333 v 2.33333 q 15.66666,-14.66666 23.66666,-14.66666 9.99999,0 8.99999,13.33333 l -1.66666,25.66666 q -0.33334,5.33333 4,5.33333 4.33333,0 6.33333,-2.33333 3,-3.66667 4.99999,-8.66667 l 5.66667,4.66667 q -3.33333,6.33333 -6.33333,9.33333 -4.33333,4.33333 -10,4.33333 -12.33333,0 -11.66666,-12.66666 z"
         style="font-size:85.3333px;-inkscape-font-specification:'sans-serif, Normal'"
         id="path30125" />
      <path
         d="m 258.54092,544.49982 q 0.66667,12.66666 0,25.33332 9.99999,3.66667 19.33332,10.33333 l -3.99999,6.33333 q -7,-5.33333 -15.33333,-9.33333 0,6 -3.66667,9.66667 -3.99999,3.99999 -11.66666,3.99999 -7.66666,0 -11.66666,-3.99999 -3.33333,-3.33334 -3.33333,-8.66667 0,-4.66666 2.66666,-7.33333 4,-4 12,-4 4.33333,0 8.66666,1 0.66667,-11.33333 0,-22.99999 l -24.66665,1.66667 v -7 l 23.99999,-1.33333 q -0.33334,-9.33333 -1.33334,-16.66666 h 7 q 3.66666,0.66667 0.66667,2.66667 0.33333,6.99999 0.66666,13.66666 l 17.99999,-1 v 6.99999 z m -50.33331,44.66665 q -1.33334,-9.33333 -1.33334,-21.66666 0,-26.99999 4,-43.33331 l 7.33333,1.33333 q 2.33333,1 -0.33333,2.33333 -3.66667,11.66666 -3.66667,39.66665 0,12.66666 1.66667,20.33333 z m 43.33331,-14.66666 q -5.66666,-1.66667 -8.66666,-1.66667 -4.66667,0 -6.66667,2 -1.66666,1.66667 -1.66666,3.33333 0,2.66667 1.33333,4 2.33333,2.33333 7,2.33333 4.66666,0 6.66666,-2.33333 2.33333,-2.66666 2,-7.66666 z"
         style="font-size:85.3333px;-inkscape-font-specification:'sans-serif, Normal'"
         id="path30127" />
      <path
         d="m 324.20756,553.83315 h -33.33332 v -7.33333 h 68.3333 v 7.33333 h -27.33332 v 4.33333 q 0,20.99999 -14.99999,34.66665 l -6.66667,-4.99999 q 14,-11 14,-29.66666 z m -21.33333,-20.33333 v -7.33333 h 44.33332 v 7.33333 z"
         style="font-size:85.3333px;-inkscape-font-specification:'sans-serif, Normal'"
         id="path30129" />
      <path
         d="m 448.20751,561.16648 -30.99999,3.33333 6.33333,26.99999 -7.33333,1.66667 -6.33333,-27.66666 -33.99999,4 -1,-7 33.33332,-3.66666 -3.33333,-15.66666 -22.66666,2.66666 -1.33333,-6.99999 21.99999,-2.33334 -3.33333,-15.33332 7,-1.33334 q 3,-0.33333 1,2.33334 l 2.66666,13.33332 24.33333,-3.33333 1.33333,7 -23.66666,3 3.33333,15.66666 31.33332,-3.66667 z"
         style="font-size:85.3333px;-inkscape-font-specification:'sans-serif, Normal'"
         id="path30131" />
      <path
         d="m 501.2075,556.83315 q 14.33333,10.99999 28.33332,25.33332 l -6.66666,5.66667 q -14,-14.66667 -26.99999,-24.66666 -13,13.99999 -29.66666,24.99999 l -6.33333,-5.66667 q 35.33332,-22.99999 45.33332,-45.99998 l -36.33332,2.33334 -1,-8 38.66665,-1.66667 4,-1 5.33333,5.33333 q 2.33333,2.33334 -1.33333,3 -6.33333,11 -13.33333,20.33333 z"
         style="font-size:85.3333px;-inkscape-font-specification:'sans-serif, Normal'"
         id="path30133" />
      <path
         d="m 578.54079,547.16649 q 16.33332,4.66666 32.99998,12.66666 l -4,7.66666 q -17.66666,-9 -28.99998,-11.99999 v 34.66665 h -7.66667 v -66.66664 h 6.66667 q 3.99999,0.33333 1,2.66666 z"
         style="font-size:85.3333px;-inkscape-font-specification:'sans-serif, Normal'"
         id="path30135" />
      <path
         d="m 699.20739,534.83316 q -11.66667,0 -18.33333,2.33333 -7.33333,2.66667 -13.66666,9 -6.33333,6.33333 -6.33333,16.33332 0,8 5,13 6.66666,6.66666 25.66665,7.33333 l -2.66666,7.33333 q -19.66666,-1 -27.33332,-8.66667 -7.66667,-7.66666 -7.66667,-18.66665 0,-15.66666 12.33333,-24.66666 -15.66666,2.33333 -31.99999,4.66666 l -2,-7.66666 q 32.66666,-2.33333 65.66664,-8 z m -7.33333,25.99999 q -7.33333,-5.33333 -12.66667,-8.33333 l 3.33334,-4 q 4.99999,3 12.66666,8.33333 z m 6.66666,-8 q -8,-5.66666 -12.66666,-8.33333 l 3.33333,-4 q 4.66667,2.66667 12.66666,8.33333 z"
         style="font-size:85.3333px;-inkscape-font-specification:'sans-serif, Normal'"
         id="path30137" />
      <path
         d="m 751.87405,569.83314 q -4,2.33334 -8.33333,2.33334 -5.66667,0 -8.66667,-3 -3.99999,-4 -3.99999,-9 0,-5.33333 3.99999,-9.33333 4,-4 10,-4 4,0 7.66666,1 v -7.33333 l -36.66665,2.33333 -1.33333,-6.99999 37.99998,-1.66667 v -15.66666 h 6 q 3.66667,0.66667 0.66667,2.66667 v 12.66666 l 28.33332,-2 v 7 l -28.33332,1.33333 v 12.66666 q 1.33333,6 1.33333,13.33333 -0.33333,16.99999 -18.99999,28.66665 l -6.33333,-4.66666 q 16.66666,-9.66667 16.66666,-20.33333 z m -6.33333,-17.33332 q -3.66667,0 -6,2.33333 -2,2 -2,5.33333 0,3 1.66666,4.66666 1.66667,1.66667 5.33334,1.66667 3.66666,0 5.99999,-2.33333 2,-2 2,-5 0,-3 -2,-5 -1.66666,-1.66666 -4.99999,-1.66666 z"
         style="font-size:85.3333px;-inkscape-font-specification:'sans-serif, Normal'"
         id="path30139" />
    </g>
    <text
       xml:space="preserve"
       transform="matrix(0.26458333,0,0,0.26458333,14.463083,8.0638798)"
       id="text10988"
       style="font-style:normal;font-weight:normal;font-size:40px;line-height:1.25;font-family:sans-serif;white-space:pre;shape-inside:url(#rect10990);fill:#000000;fill-opacity:1;stroke:none" />
    <text
       xml:space="preserve"
       transform="matrix(0.26458333,0,0,0.26458333,14.463083,8.0638798)"
       id="text19166"
       style="font-style:normal;font-weight:normal;font-size:40px;line-height:1.25;font-family:sans-serif;white-space:pre;shape-inside:url(#rect19168);fill:#000000;fill-opacity:1;stroke:none" />
    <text
       xml:space="preserve"
       transform="matrix(0.26458333,0,0,0.26458333,14.463083,8.0638798)"
       id="text32084"
       style="font-style:normal;font-weight:normal;font-size:40px;line-height:1.25;font-family:sans-serif;white-space:pre;shape-inside:url(#rect32086);fill:#000000;fill-opacity:1;stroke:none" />
    <text
       xml:space="preserve"
       transform="matrix(0.26458333,0,0,0.26458333,14.463083,8.0638798)"
       id="text48397"
       style="font-style:normal;font-weight:normal;font-size:40px;line-height:1.25;font-family:sans-serif;white-space:pre;shape-inside:url(#rect48399);fill:#000000;fill-opacity:1;stroke:none" />
  </g>
</svg>
