<?xml version="1.0" encoding="UTF-8" standalone="no"?>
<!-- Created with Inkscape (http://www.inkscape.org/) -->

<svg
   width="128mm"
   height="128mm"
   viewBox="0 0 128.00001 128"
   version="1.1"
   id="svg284"
   inkscape:version="1.1.2 (b8e25be833, 2022-02-05)"
   sodipodi:docname="stars.svg"
   xmlns:inkscape="http://www.inkscape.org/namespaces/inkscape"
   xmlns:sodipodi="http://sodipodi.sourceforge.net/DTD/sodipodi-0.dtd"
   xmlns="http://www.w3.org/2000/svg"
   xmlns:svg="http://www.w3.org/2000/svg">
  <sodipodi:namedview
     id="namedview286"
     pagecolor="#ffffff"
     bordercolor="#666666"
     borderopacity="1.0"
     inkscape:pageshadow="2"
     inkscape:pageopacity="0.0"
     inkscape:pagecheckerboard="0"
     inkscape:document-units="mm"
     showgrid="false"
     inkscape:zoom="0.90583672"
     inkscape:cx="344.98491"
     inkscape:cy="405.15028"
     inkscape:window-width="1920"
     inkscape:window-height="1137"
     inkscape:window-x="-8"
     inkscape:window-y="-8"
     inkscape:window-maximized="1"
     inkscape:current-layer="layer1"
     fit-margin-top="0"
     fit-margin-left="0"
     fit-margin-right="0"
     fit-margin-bottom="0"
     inkscape:lockguides="true" />
  <defs
     id="defs281">
    <rect
       x="34.346916"
       y="312.24469"
       width="462.12216"
       height="57.76527"
       id="rect2872" />
  </defs>
  <g
     inkscape:label="Layer 1"
     inkscape:groupmode="layer"
     id="layer1"
     transform="translate(29.422229,-5.3408725)">
    <path
       id="path310"
       style="fill:#ffd42a;stroke-width:0.290443"
       inkscape:transform-center-x="-2.955424"
       inkscape:transform-center-y="0.71936387"
       d="M 17.364651,6.5092211 19.495175,32.290747 41.419737,45.107432 18.160456,55.151612 13.045415,80.488538 -3.4601344,60.914663 -28.545967,63.757059 -15.487678,41.615558 -25.876532,18.035327 -1.3005166,23.925005 Z" />
    <path
       id="path1277"
       style="fill:#774aff;stroke:#00e328;stroke-width:8.32627;stroke-miterlimit:4;stroke-dasharray:none"
       inkscape:transform-center-x="-0.47620912"
       inkscape:transform-center-y="1.6323065"
       d="m 51.566263,74.622464 1.652357,13.227751 7.966931,10.654392 -11.99625,5.668323 -7.611813,10.91389 -9.066448,-9.72453 -12.671292,-3.90922 6.392877,-11.67842 -0.219473,-13.329934 13.017462,2.506883 z" />
    <path
       id="path846"
       style="fill:#ff0000;stroke:#00fe00;stroke-width:7.55906"
       inkscape:transform-center-x="0.97032324"
       inkscape:transform-center-y="0.47009656"
       transform="matrix(0.3214842,0,0,0.33038819,-22.207094,15.557474)"
       d="M 88.316137,314.62624 60.665315,318.93152 38.80658,336.40433 26.167443,311.43724 2.7950933,296.04774 22.634499,276.31195 l 7.413829,-26.98404 24.900564,12.7697 27.954347,-1.28756 -4.45001,27.6279 z" />
    <path
       id="path846-9"
       style="fill:#ffff00;stroke:#ff0000;stroke-width:7.56047"
       inkscape:transform-center-x="-1.1181329"
       inkscape:transform-center-y="0.20004411"
       transform="matrix(0.22732366,0.22732366,-0.23361973,0.23361973,136.20746,33.752945)"
       d="M 88.316137,314.62622 60.665315,318.9315 38.80658,336.40431 26.167443,311.43722 2.7950933,296.04772 22.634499,276.31193 l 7.413829,-26.98404 24.900564,12.7697 27.954347,-1.28755 -4.45001,27.6279 z" />
    <path
       id="path1276"
       style="fill:#20899e;stroke:#000000;stroke-width:16.3265"
       inkscape:transform-center-x="0.032798841"
       inkscape:transform-center-y="2.3305058"
       transform="matrix(0.24833747,0,0,0.24170741,-8.4299242,9.2390613)"
       d="m 400.60486,166.86829 -89.41204,29.84357 1.88529,57.16495 -56.01276,-75.81373 -53.78451,19.45795 54.79425,-76.69903 -35.12594,-45.139264 89.87746,28.411124 32.07548,-47.355561 0.75309,94.258071 z" />
  </g>
</svg>
